<svg width="53" height="52" viewBox="0 0 53 52" fill="none" xmlns="http://www.w3.org/2000/svg">
<path fill-rule="evenodd" clip-rule="evenodd" d="M50 2H0V52H50V2ZM31.6429 7C30.563 7 29.5275 7.42895 28.7639 8.19249C28.0004 8.95603 27.5714 9.99162 27.5714 11.0714V14.7143H11.0714C9.99162 14.7143 8.95603 15.1432 8.19249 15.9068C7.42895 16.6703 7 17.7059 7 18.7857V34.2143C7 35.2941 7.42895 36.3297 8.19249 37.0932C8.95603 37.8568 9.99162 38.2857 11.0714 38.2857H22.4286V43H17.5V46H31.6429H41.9286C43.0084 46 44.044 45.571 44.8075 44.8075C45.571 44.044 46 43.0084 46 41.9286V11.0714C46 9.99162 45.571 8.95603 44.8075 8.19249C44.044 7.42895 43.0084 7 41.9286 7H31.6429ZM27.5714 41.9286C27.5714 42.2937 27.6205 42.6538 27.7149 43H25.4286V38.2857H27.5714V41.9286Z" fill="#47F4F4"/>
<path d="M2 1V0.5H1.5V1H2ZM52 1H52.5V0.5H52V1ZM2 51H1.5V51.5H2V51ZM52 51V51.5H52.5V51H52ZM29.2639 7.69249L28.9104 7.33894L28.9104 7.33894L29.2639 7.69249ZM28.0714 14.2143V14.7143H28.5714V14.2143H28.0714ZM8.69249 36.5932L9.04605 36.2397L9.04605 36.2397L8.69249 36.5932ZM22.9286 37.7857H23.4286V37.2857H22.9286V37.7857ZM22.9286 42.5V43H23.4286V42.5H22.9286ZM18 42.5V42H17.5V42.5H18ZM18 45.5H17.5V46H18V45.5ZM45.3075 44.3075L45.6611 44.6611L45.6611 44.6611L45.3075 44.3075ZM45.3075 7.69249L45.6611 7.33894L45.6611 7.33894L45.3075 7.69249ZM31.3852 9.81381L31.0317 9.46026L31.0317 9.46026L31.3852 9.81381ZM43.1862 9.81381L43.5397 9.46026L43.5397 9.46026L43.1862 9.81381ZM43.5 19.3571V19.8571H44V19.3571H43.5ZM31.0714 19.3571H30.5714V19.8571H31.0714V19.3571ZM43.5 22.3571H44V21.8571H43.5V22.3571ZM31.0714 22.3571V21.8571H30.5714V22.3571H31.0714ZM43.1862 42.1862L42.8326 41.8326L42.8326 41.8326L43.1862 42.1862ZM31.3852 42.1862L31.7388 41.8326L31.7388 41.8326L31.3852 42.1862ZM28.2149 42.5V43H28.8696L28.6973 42.3684L28.2149 42.5ZM25.9286 42.5H25.4286V43H25.9286V42.5ZM25.9286 37.7857V37.2857H25.4286V37.7857H25.9286ZM28.0714 37.7857H28.5714V37.2857H28.0714V37.7857ZM28.0714 34.7857V35.2857H28.5714V34.7857H28.0714ZM28.0714 17.2143H28.5714V16.7143H28.0714V17.2143ZM10.8138 34.4719L10.4603 34.8255L10.4603 34.8255L10.8138 34.4719ZM41.1429 37.7857V38.2857H41.6429V37.7857H41.1429ZM33.4286 37.7857H32.9286V38.2857H33.4286V37.7857ZM41.1429 34.7857H41.6429V34.2857H41.1429V34.7857ZM33.4286 34.7857V34.2857H32.9286V34.7857H33.4286ZM2 1.5H52V0.5H2V1.5ZM2.5 51V1H1.5V51H2.5ZM52 50.5H2V51.5H52V50.5ZM51.5 1V51H52.5V1H51.5ZM29.6175 8.04605C30.2872 7.37627 31.1957 7 32.1429 7V6C30.9304 6 29.7677 6.48163 28.9104 7.33894L29.6175 8.04605ZM28.5714 10.5714C28.5714 9.62423 28.9477 8.71582 29.6175 8.04605L28.9104 7.33894C28.0531 8.19625 27.5714 9.35901 27.5714 10.5714H28.5714ZM28.5714 14.2143V10.5714H27.5714V14.2143H28.5714ZM11.5714 14.7143H28.0714V13.7143H11.5714V14.7143ZM9.04605 15.7603C9.71582 15.0906 10.6242 14.7143 11.5714 14.7143V13.7143C10.359 13.7143 9.19625 14.1959 8.33894 15.0532L9.04605 15.7603ZM8 18.2857C8 17.3385 8.37627 16.4301 9.04605 15.7603L8.33894 15.0532C7.48163 15.9105 7 17.0733 7 18.2857H8ZM8 33.7143V18.2857H7V33.7143H8ZM9.04605 36.2397C8.37627 35.5699 8 34.6615 8 33.7143H7C7 34.9267 7.48163 36.0895 8.33894 36.9468L9.04605 36.2397ZM11.5714 37.2857C10.6242 37.2857 9.71582 36.9094 9.04605 36.2397L8.33894 36.9468C9.19625 37.8041 10.359 38.2857 11.5714 38.2857V37.2857ZM22.9286 37.2857H11.5714V38.2857H22.9286V37.2857ZM23.4286 42.5V37.7857H22.4286V42.5H23.4286ZM18 43H22.9286V42H18V43ZM18.5 45.5V42.5H17.5V45.5H18.5ZM32.1429 45H18V46H32.1429V45ZM42.4286 45H32.1429V46H42.4286V45ZM44.954 43.954C44.2842 44.6237 43.3758 45 42.4286 45V46C43.641 46 44.8037 45.5184 45.6611 44.6611L44.954 43.954ZM46 41.4286C46 42.3758 45.6237 43.2842 44.954 43.954L45.6611 44.6611C46.5184 43.8037 47 42.641 47 41.4286H46ZM46 10.5714V41.4286H47V10.5714H46ZM44.954 8.04605C45.6237 8.71582 46 9.62423 46 10.5714H47C47 9.35901 46.5184 8.19625 45.6611 7.33894L44.954 8.04605ZM42.4286 7C43.3758 7 44.2842 7.37627 44.954 8.04605L45.6611 7.33894C44.8037 6.48163 43.641 6 42.4286 6V7ZM32.1429 7H42.4286V6H32.1429V7ZM30.5714 14.2143V15.7143H31.5714V14.2143H30.5714ZM30.5714 10.5714V14.2143H31.5714V10.5714H30.5714ZM31.0317 9.46026C30.737 9.75496 30.5714 10.1547 30.5714 10.5714H31.5714C31.5714 10.4199 31.6316 10.2745 31.7388 10.1674L31.0317 9.46026ZM32.1429 9C31.7261 9 31.3264 9.16556 31.0317 9.46026L31.7388 10.1674C31.846 10.0602 31.9913 10 32.1429 10V9ZM42.4286 9H32.1429V10H42.4286V9ZM43.5397 9.46026C43.245 9.16556 42.8453 9 42.4286 9V10C42.5801 10 42.7255 10.0602 42.8326 10.1674L43.5397 9.46026ZM44 10.5714C44 10.1547 43.8344 9.75496 43.5397 9.46026L42.8326 10.1674C42.9398 10.2745 43 10.4199 43 10.5714H44ZM44 19.3571V10.5714H43V19.3571H44ZM31.0714 19.8571H43.5V18.8571H31.0714V19.8571ZM30.5714 15.7143V19.3571H31.5714V15.7143H30.5714ZM43.5 21.8571H31.0714V22.8571H43.5V21.8571ZM44 41.4286V22.3571H43V41.4286H44ZM43.5397 42.5397C43.8344 42.245 44 41.8453 44 41.4286H43C43 41.5801 42.9398 41.7255 42.8326 41.8326L43.5397 42.5397ZM42.4286 43C42.8453 43 43.245 42.8344 43.5397 42.5397L42.8326 41.8326C42.7255 41.9398 42.5801 42 42.4286 42V43ZM32.1429 43H42.4286V42H32.1429V43ZM31.0317 42.5397C31.3264 42.8344 31.7261 43 32.1429 43V42C31.9913 42 31.846 41.9398 31.7388 41.8326L31.0317 42.5397ZM30.5714 41.4286C30.5714 41.8453 30.737 42.245 31.0317 42.5397L31.7388 41.8326C31.6316 41.7255 31.5714 41.5801 31.5714 41.4286H30.5714ZM30.5714 37.7857V41.4286H31.5714V37.7857H30.5714ZM30.5714 36.2857V37.7857H31.5714V36.2857H30.5714ZM30.5714 22.3571V36.2857H31.5714V22.3571H30.5714ZM28.6973 42.3684C28.6145 42.0647 28.5714 41.7489 28.5714 41.4286H27.5714C27.5714 41.8385 27.6265 42.2428 27.7326 42.6316L28.6973 42.3684ZM25.9286 43H28.2149V42H25.9286V43ZM25.4286 37.7857V42.5H26.4286V37.7857H25.4286ZM28.0714 37.2857H25.9286V38.2857H28.0714V37.2857ZM28.5714 41.4286V37.7857H27.5714V41.4286H28.5714ZM28.5714 34.7857V17.2143H27.5714V34.7857H28.5714ZM11.5714 35.2857H28.0714V34.2857H11.5714V35.2857ZM10.4603 34.8255C10.755 35.1202 11.1547 35.2857 11.5714 35.2857V34.2857C11.4199 34.2857 11.2745 34.2255 11.1674 34.1183L10.4603 34.8255ZM10 33.7143C10 34.1311 10.1656 34.5308 10.4603 34.8255L11.1674 34.1184C11.0602 34.0112 11 33.8658 11 33.7143H10ZM10 18.2857V33.7143H11V18.2857H10ZM10.4603 17.1745C10.1656 17.4692 10 17.8689 10 18.2857H11C11 18.1342 11.0602 17.9888 11.1674 17.8817L10.4603 17.1745ZM11.5714 16.7143C11.1547 16.7143 10.755 16.8798 10.4603 17.1745L11.1674 17.8817C11.2745 17.7745 11.4199 17.7143 11.5714 17.7143V16.7143ZM28.0714 16.7143H11.5714V17.7143H28.0714V16.7143ZM41.1429 37.2857H33.4286V38.2857H41.1429V37.2857ZM40.6429 34.7857V37.7857H41.6429V34.7857H40.6429ZM33.4286 35.2857H41.1429V34.2857H33.4286V35.2857ZM33.9286 37.7857V34.7857H32.9286V37.7857H33.9286Z" fill="#FFFF00"/>
</svg>
