<svg width="53" height="52" viewBox="0 0 53 52" fill="none" xmlns="http://www.w3.org/2000/svg">
<path d="M0 1V51H25.3208H50V1H0ZM39.0358 11.3075L37.7008 26.2925L37.7058 26.375L37.7008 26.56L36.7508 37.035L36.6483 37.9675L25.3458 41.0925L25.3358 41.1025L14.0558 37.9575L13.2908 29.295H18.8208L19.2133 33.7L25.3458 35.3625L31.4983 33.6775L32.1483 26.505H19.2883L19.1783 25.2925L18.9258 22.4525L18.7958 20.9275H32.6408L33.1458 15.3475H12.0508L11.9408 14.135L11.6908 11.2925L11.5583 9.7675H39.1683L39.0358 11.3075Z" fill="#47F4F4"/>
<path d="M2 1V51H27.3208H52V1H2ZM41.0358 11.3075L39.7008 26.2925L39.7058 26.375L39.7008 26.56L38.7508 37.035L38.6483 37.9675L27.3458 41.0925L27.3358 41.1025L16.0558 37.9575L15.2908 29.295H20.8208L21.2133 33.7L27.3458 35.3625L33.4983 33.6775L34.1483 26.505H21.2883L21.1783 25.2925L20.9258 22.4525L20.7958 20.9275H34.6408L35.1458 15.3475H14.0508L13.9408 14.135L13.6908 11.2925L13.5583 9.7675H41.1683L41.0358 11.3075Z" stroke="#FFFF00"/>
</svg>
