<svg width="53" height="52" viewBox="0 0 53 52" fill="none" xmlns="http://www.w3.org/2000/svg">
<path fill-rule="evenodd" clip-rule="evenodd" d="M50 1H0V51H50V1ZM28.4883 15.65C28.72 15.0845 28.9854 14.5335 29.2834 14C31.4099 14.397 33.4733 15.0781 35.4183 16.025C38.9493 21.0953 40.5459 27.2633 39.9183 33.41C37.6331 35.1359 35.0647 36.4505 32.3283 37.295C31.7145 36.452 31.1726 35.5588 30.7083 34.625C31.5987 34.2811 32.457 33.8595 33.2733 33.365C33.0634 33.215 32.8533 33.05 32.6433 32.87C30.2757 34.0105 27.6814 34.6027 25.0533 34.6027C22.4253 34.6027 19.831 34.0105 17.4633 32.87C17.2667 33.0513 17.056 33.2168 16.8333 33.365C17.6453 33.8634 18.5045 34.2804 19.3983 34.61C18.914 35.5231 18.3572 36.3959 17.7333 37.22C14.9935 36.3726 12.4207 35.0583 10.1284 33.335C9.5155 27.1894 11.1107 21.0264 14.6284 15.95C16.5955 15.0223 18.6795 14.3663 20.8233 14C21.1212 14.5335 21.3867 15.0845 21.6183 15.65C23.8942 15.2901 26.2125 15.2901 28.4883 15.65ZM18.1187 28.8692C18.6222 29.4285 19.3227 29.7711 20.0733 29.825C20.8253 29.7748 21.5281 29.4333 22.0323 28.8731C22.5365 28.3129 22.8023 27.5781 22.7733 26.825C22.8023 26.0719 22.5365 25.3371 22.0323 24.7769C21.5281 24.2167 20.8253 23.8752 20.0733 23.825C19.3213 23.8752 18.6186 24.2167 18.1143 24.7769C17.6102 25.3371 17.3443 26.0719 17.3734 26.825C17.3481 27.5771 17.6153 28.3098 18.1187 28.8692ZM28.0787 28.8692C28.5822 29.4285 29.2827 29.7711 30.0334 29.825C30.7867 29.7785 31.4918 29.4381 31.9968 28.8771C32.5017 28.316 32.7662 27.5791 32.7333 26.825C32.7662 26.0709 32.5017 25.334 31.9968 24.7729C31.4918 24.2119 30.7867 23.8715 30.0334 23.825C29.2813 23.8752 28.5786 24.2167 28.0744 24.7769C27.5702 25.3371 27.3043 26.0719 27.3333 26.825C27.3081 27.5771 27.5753 28.3098 28.0787 28.8692Z" fill="#47F4F4"/>
<path d="M2 1V0.5H1.5V1H2ZM52 1H52.5V0.5H52V1ZM2 51H1.5V51.5H2V51ZM52 51V51.5H52.5V51H52ZM31.2833 14L31.3751 13.5085L31.0219 13.4426L30.8468 13.7562L31.2833 14ZM30.4883 15.65L30.4102 16.1439L30.8011 16.2057L30.951 15.8395L30.4883 15.65ZM37.4183 16.025L37.8286 15.7393L37.7543 15.6324L37.6372 15.5754L37.4183 16.025ZM41.9183 33.41L42.2197 33.809L42.3936 33.6776L42.4158 33.4608L41.9183 33.41ZM34.3283 37.295L33.9241 37.5893L34.1344 37.8781L34.4758 37.7728L34.3283 37.295ZM32.7083 34.625L32.5282 34.1586L32.0164 34.3563L32.2606 34.8476L32.7083 34.625ZM35.2733 33.365L35.5324 33.7927L36.1817 33.3994L35.564 32.9581L35.2733 33.365ZM34.6433 32.87L34.9687 32.4904L34.7207 32.2778L34.4264 32.4195L34.6433 32.87ZM19.4633 32.87L19.6803 32.4195L19.3742 32.2721L19.1244 32.5024L19.4633 32.87ZM18.8333 33.365L18.5564 32.9487L17.9052 33.382L18.5718 33.7911L18.8333 33.365ZM21.3983 34.61L21.84 34.8443L22.1082 34.3388L21.5713 34.1409L21.3983 34.61ZM19.7333 37.22L19.5856 37.6977L19.9204 37.8012L20.132 37.5218L19.7333 37.22ZM12.1283 33.335L11.6308 33.3846L11.6526 33.6029L11.8279 33.7347L12.1283 33.335ZM16.6283 15.95L16.4151 15.4978L16.2938 15.555L16.2174 15.6652L16.6283 15.95ZM22.8233 14L23.2599 13.7562L23.0876 13.4476L22.7391 13.5071L22.8233 14ZM23.6183 15.65L23.1557 15.8395L23.3056 16.2057L23.6964 16.1439L23.6183 15.65ZM22.0733 29.825L22.0375 30.3237L22.0721 30.3262L22.1067 30.3239L22.0733 29.825ZM24.7733 26.825L24.2737 26.8058L24.273 26.825L24.2737 26.8442L24.7733 26.825ZM22.0733 23.825L22.1067 23.3261L22.0733 23.3239L22.04 23.3261L22.0733 23.825ZM20.1144 24.7769L20.486 25.1114L20.486 25.1114L20.1144 24.7769ZM19.3733 26.825L19.8731 26.8417L19.8737 26.8238L19.873 26.8058L19.3733 26.825ZM32.0333 29.825L31.9975 30.3237L32.0308 30.3261L32.0641 30.3241L32.0333 29.825ZM33.9968 28.8771L34.3684 29.2116L34.3684 29.2116L33.9968 28.8771ZM34.7333 26.825L34.2338 26.8032L34.2329 26.825L34.2338 26.8468L34.7333 26.825ZM33.9968 24.7729L34.3684 24.4384L34.3684 24.4384L33.9968 24.7729ZM32.0333 23.825L32.0641 23.3259L32.0321 23.324L32 23.3261L32.0333 23.825ZM30.0744 24.7769L29.7027 24.4424L29.7027 24.4424L30.0744 24.7769ZM29.3333 26.825L29.8331 26.8417L29.8337 26.8238L29.833 26.8058L29.3333 26.825ZM2 1.5H52V0.5H2V1.5ZM2.5 51V1H1.5V51H2.5ZM52 50.5H2V51.5H52V50.5ZM51.5 1V51H52.5V1H51.5ZM30.8468 13.7562C30.5391 14.3073 30.2649 14.8764 30.0257 15.4605L30.951 15.8395C31.175 15.2926 31.4318 14.7597 31.7199 14.2438L30.8468 13.7562ZM37.6372 15.5754C35.6519 14.6089 33.5457 13.9137 31.3751 13.5085L31.1916 14.4915C33.274 14.8803 35.2948 15.5473 37.1995 16.4746L37.6372 15.5754ZM42.4158 33.4608C43.0555 27.1951 41.428 20.9077 37.8286 15.7393L37.008 16.3107C40.4707 21.2829 42.0363 27.3315 41.4209 33.3592L42.4158 33.4608ZM34.4758 37.7728C37.2677 36.9112 39.8881 35.5699 42.2197 33.809L41.617 33.011C39.3781 34.7019 36.8618 35.9899 34.1809 36.8172L34.4758 37.7728ZM32.2606 34.8476C32.7373 35.8065 33.2938 36.7236 33.9241 37.5893L34.7325 37.0007C34.1352 36.1803 33.6078 35.3111 33.1561 34.4024L32.2606 34.8476ZM35.0143 32.9373C34.223 33.4166 33.3911 33.8253 32.5282 34.1586L32.8885 35.0914C33.8062 34.7369 34.6909 34.3023 35.5324 33.7927L35.0143 32.9373ZM34.3179 33.2496C34.5383 33.4385 34.7599 33.6127 34.9827 33.7719L35.564 32.9581C35.3668 32.8173 35.1683 32.6615 34.9687 32.4904L34.3179 33.2496ZM27.0533 35.1027C29.7565 35.1027 32.4249 34.4935 34.8603 33.3205L34.4264 32.4195C32.1264 33.5274 29.6063 34.1027 27.0533 34.1027V35.1027ZM19.2464 33.3205C21.6817 34.4935 24.3502 35.1027 27.0533 35.1027V34.1027C24.5004 34.1027 21.9803 33.5274 19.6803 32.4195L19.2464 33.3205ZM19.1103 33.7813C19.3549 33.6185 19.5863 33.4367 19.8023 33.2376L19.1244 32.5024C18.9471 32.6659 18.7572 32.8151 18.5564 32.9487L19.1103 33.7813ZM21.5713 34.1409C20.7083 33.8227 19.8788 33.4201 19.0949 32.9389L18.5718 33.7911C19.4118 34.3067 20.3006 34.7382 21.2254 35.0791L21.5713 34.1409ZM20.132 37.5218C20.772 36.6764 21.3432 35.781 21.84 34.8443L20.9566 34.3757C20.4848 35.2652 19.9424 36.1154 19.3347 36.9182L20.132 37.5218ZM11.8279 33.7347C14.1663 35.4926 16.7908 36.8333 19.5856 37.6977L19.8811 36.7423C17.1963 35.912 14.6751 34.624 12.4288 32.9353L11.8279 33.7347ZM16.2174 15.6652C12.6321 20.8393 11.0062 27.1208 11.6308 33.3846L12.6259 33.2854C12.0248 27.258 13.5894 21.2136 17.0393 16.2348L16.2174 15.6652ZM22.7391 13.5071C20.5507 13.8811 18.4232 14.5507 16.4151 15.4978L16.8416 16.4022C18.7677 15.4939 20.8084 14.8515 22.9076 14.4929L22.7391 13.5071ZM24.081 15.4605C23.8418 14.8764 23.5676 14.3073 23.2599 13.7562L22.3868 14.2438C22.6749 14.7597 22.9317 15.2926 23.1557 15.8395L24.081 15.4605ZM30.5664 15.1561C28.2388 14.788 25.8678 14.788 23.5402 15.1561L23.6964 16.1439C25.9206 15.7921 28.1861 15.7921 30.4102 16.1439L30.5664 15.1561ZM22.1091 29.3263C21.4875 29.2817 20.9073 28.9979 20.4904 28.5347L19.7471 29.2036C20.337 29.8591 21.1579 30.2606 22.0375 30.3237L22.1091 29.3263ZM23.6607 28.5386C23.2436 29.0021 22.6622 29.2846 22.04 29.3261L22.1067 30.3239C22.9885 30.265 23.8127 29.8645 24.404 29.2076L23.6607 28.5386ZM24.2737 26.8442C24.2977 27.4673 24.0778 28.0751 23.6607 28.5386L24.404 29.2076C24.9952 28.5506 25.307 27.689 25.273 26.8058L24.2737 26.8442ZM23.6607 25.1114C24.0778 25.5749 24.2977 26.1827 24.2737 26.8058L25.273 26.8442C25.307 25.961 24.9952 25.0994 24.404 24.4424L23.6607 25.1114ZM22.04 24.3239C22.6622 24.3654 23.2436 24.6479 23.6607 25.1114L24.404 24.4424C23.8127 23.7855 22.9885 23.385 22.1067 23.3261L22.04 24.3239ZM20.486 25.1114C20.9031 24.6479 21.4845 24.3654 22.1067 24.3239L22.04 23.3261C21.1581 23.385 20.334 23.7855 19.7427 24.4424L20.486 25.1114ZM19.873 26.8058C19.849 26.1827 20.0689 25.5749 20.486 25.1114L19.7427 24.4424C19.1514 25.0994 18.8397 25.961 18.8737 26.8442L19.873 26.8058ZM20.4904 28.5347C20.0734 28.0714 19.8522 27.4646 19.8731 26.8417L18.8736 26.8083C18.8441 27.6896 19.1571 28.5482 19.7471 29.2036L20.4904 28.5347ZM32.0691 29.3263C31.4475 29.2817 30.8673 28.9979 30.4504 28.5347L29.7071 29.2036C30.297 29.8591 31.1179 30.2606 31.9975 30.3237L32.0691 29.3263ZM33.6251 28.5426C33.2078 29.0063 32.6252 29.2876 32.0026 29.3259L32.0641 30.3241C32.9483 30.2695 33.7758 29.87 34.3684 29.2116L33.6251 28.5426ZM34.2338 26.8468C34.261 27.47 34.0424 28.0789 33.6251 28.5426L34.3684 29.2116C34.961 28.5531 35.2715 27.6883 35.2329 26.8032L34.2338 26.8468ZM33.6251 25.1074C34.0424 25.5711 34.261 26.18 34.2338 26.8032L35.2329 26.8468C35.2715 25.9617 34.961 25.0969 34.3684 24.4384L33.6251 25.1074ZM32.0026 24.3241C32.6252 24.3624 33.2078 24.6437 33.6251 25.1074L34.3684 24.4384C33.7758 23.78 32.9483 23.3805 32.0641 23.3259L32.0026 24.3241ZM30.446 25.1114C30.8631 24.6479 31.4445 24.3654 32.0667 24.3239L32 23.3261C31.1181 23.385 30.294 23.7855 29.7027 24.4424L30.446 25.1114ZM29.833 26.8058C29.809 26.1827 30.0289 25.5749 30.446 25.1114L29.7027 24.4424C29.1114 25.0994 28.7997 25.961 28.8337 26.8442L29.833 26.8058ZM30.4504 28.5347C30.0334 28.0714 29.8122 27.4646 29.8331 26.8417L28.8336 26.8083C28.8041 27.6896 29.1171 28.5482 29.7071 29.2036L30.4504 28.5347Z" fill="#FFFF00"/>
</svg>
