<svg width="53" height="52" viewBox="0 0 53 52" fill="none" xmlns="http://www.w3.org/2000/svg">
<path fill-rule="evenodd" clip-rule="evenodd" d="M50 1H0V51H50V1ZM12.4 37.4L17.746 32H32.254L37.6 37.4C38.194 37.94 38.986 38.3 39.85 38.3C40.6854 38.3 41.4866 37.9681 42.0774 37.3774C42.6681 36.7866 43 35.9854 43 35.15V34.7L41.2 21.416C40.822 17.258 37.348 14 33.1 14H16.9C14.868 14.0027 12.9104 14.7649 11.4117 16.1371C9.91302 17.5092 8.98146 19.3921 8.8 21.416L7 34.7V35.15C7 35.9854 7.33187 36.7866 7.92261 37.3774C8.51335 37.9681 9.31457 38.3 10.15 38.3C11.014 38.3 11.806 37.94 12.4 37.4ZM16 21.2V17.6H17.8V21.2H21.4V23H17.8V26.6H16V23H12.4V21.2H16ZM32.1454 17.9954C32.3986 17.7422 32.742 17.6 33.1 17.6C33.458 17.6 33.8014 17.7422 34.0546 17.9954C34.3078 18.2486 34.45 18.592 34.45 18.95C34.45 19.308 34.3078 19.6514 34.0546 19.9046C33.8014 20.1578 33.458 20.3 33.1 20.3C32.742 20.3 32.3986 20.1578 32.1454 19.9046C31.8922 19.6514 31.75 19.308 31.75 18.95C31.75 18.592 31.8922 18.2486 32.1454 17.9954ZM28.9954 21.1454C29.2486 20.8922 29.592 20.75 29.95 20.75C30.308 20.75 30.6514 20.8922 30.9046 21.1454C31.1578 21.3986 31.3 21.742 31.3 22.1C31.3 22.458 31.1578 22.8014 30.9046 23.0546C30.6514 23.3078 30.308 23.45 29.95 23.45C29.592 23.45 29.2486 23.3078 28.9954 23.0546C28.7422 22.8014 28.6 22.458 28.6 22.1C28.6 21.742 28.7422 21.3986 28.9954 21.1454ZM35.2954 21.1454C35.5486 20.8922 35.892 20.75 36.25 20.75C36.608 20.75 36.9514 20.8922 37.2046 21.1454C37.4578 21.3986 37.6 21.742 37.6 22.1C37.6 22.458 37.4578 22.8014 37.2046 23.0546C36.9514 23.3078 36.608 23.45 36.25 23.45C35.892 23.45 35.5486 23.3078 35.2954 23.0546C35.0422 22.8014 34.9 22.458 34.9 22.1C34.9 21.742 35.0422 21.3986 35.2954 21.1454ZM32.1454 24.2954C32.3986 24.0422 32.742 23.9 33.1 23.9C33.458 23.9 33.8014 24.0422 34.0546 24.2954C34.3078 24.5486 34.45 24.892 34.45 25.25C34.45 25.608 34.3078 25.9514 34.0546 26.2046C33.8014 26.4578 33.458 26.6 33.1 26.6C32.742 26.6 32.3986 26.4578 32.1454 26.2046C31.8922 25.9514 31.75 25.608 31.75 25.25C31.75 24.892 31.8922 24.5486 32.1454 24.2954Z" fill="#47F4F4"/>
<path d="M2 1V0.5H1.5V1H2ZM52 1H52.5V0.5H52V1ZM2 51H1.5V51.5H2V51ZM52 51V51.5H52.5V51H52ZM19.746 32V31.5H19.5374L19.3907 31.6482L19.746 32ZM14.4 37.4L14.7363 37.77L14.7461 37.7611L14.7553 37.7518L14.4 37.4ZM34.254 32L34.6093 31.6482L34.4626 31.5H34.254V32ZM39.6 37.4L39.2447 37.7518L39.2539 37.7611L39.2637 37.77L39.6 37.4ZM45 34.7H45.5V34.6663L45.4955 34.6329L45 34.7ZM43.2 21.416L42.7021 21.4613L42.7031 21.4722L42.7045 21.4831L43.2 21.416ZM18.9 14V13.5H18.8993L18.9 14ZM13.4117 16.1371L13.7494 16.5059L13.4117 16.1371ZM10.8 21.416L11.2955 21.4831L11.297 21.4719L11.298 21.4607L10.8 21.416ZM9 34.7L8.50453 34.6329L8.5 34.6663V34.7H9ZM9.92261 37.3774L9.56906 37.7309H9.56906L9.92261 37.3774ZM18 17.6V17.1H17.5V17.6H18ZM18 21.2V21.7H18.5V21.2H18ZM19.8 17.6H20.3V17.1H19.8V17.6ZM19.8 21.2H19.3V21.7H19.8V21.2ZM23.4 21.2H23.9V20.7H23.4V21.2ZM23.4 23V23.5H23.9V23H23.4ZM19.8 23V22.5H19.3V23H19.8ZM19.8 26.6V27.1H20.3V26.6H19.8ZM18 26.6H17.5V27.1H18V26.6ZM18 23H18.5V22.5H18V23ZM14.4 23H13.9V23.5H14.4V23ZM14.4 21.2V20.7H13.9V21.2H14.4ZM34.1454 17.9954L34.499 18.349V18.349L34.1454 17.9954ZM36.0546 17.9954L35.701 18.349V18.349L36.0546 17.9954ZM36.0546 19.9046L35.701 19.551V19.551L36.0546 19.9046ZM34.1454 19.9046L34.499 19.551V19.551L34.1454 19.9046ZM30.9954 21.1454L30.6419 20.7919H30.6419L30.9954 21.1454ZM32.9046 23.0546L33.2581 23.4081V23.4081L32.9046 23.0546ZM30.9954 23.0546L30.6419 23.4081L30.6419 23.4081L30.9954 23.0546ZM39.2046 23.0546L39.5581 23.4081V23.4081L39.2046 23.0546ZM37.2954 23.0546L36.9418 23.4081V23.4081L37.2954 23.0546ZM2 1.5H52V0.5H2V1.5ZM2.5 51V1H1.5V51H2.5ZM52 50.5H2V51.5H52V50.5ZM51.5 1V51H52.5V1H51.5ZM19.3907 31.6482L14.0447 37.0482L14.7553 37.7518L20.1013 32.3518L19.3907 31.6482ZM34.254 31.5H19.746V32.5H34.254V31.5ZM39.9553 37.0482L34.6093 31.6482L33.8987 32.3518L39.2447 37.7518L39.9553 37.0482ZM41.85 37.8C41.1269 37.8 40.4513 37.4981 39.9363 37.03L39.2637 37.77C39.9367 38.3819 40.8451 38.8 41.85 38.8V37.8ZM43.7238 37.0238C43.2269 37.5208 42.5528 37.8 41.85 37.8V38.8C42.818 38.8 43.7464 38.4154 44.4309 37.7309L43.7238 37.0238ZM44.5 35.15C44.5 35.8528 44.2208 36.5269 43.7238 37.0238L44.4309 37.7309C45.1154 37.0464 45.5 36.118 45.5 35.15H44.5ZM44.5 34.7V35.15H45.5V34.7H44.5ZM42.7045 21.4831L44.5045 34.7671L45.4955 34.6329L43.6955 21.3489L42.7045 21.4831ZM35.1 14.5C39.085 14.5 42.3471 17.5564 42.7021 21.4613L43.6979 21.3707C43.2969 16.9596 39.611 13.5 35.1 13.5V14.5ZM18.9 14.5H35.1V13.5H18.9V14.5ZM13.7494 16.5059C15.1561 15.218 16.9934 14.5025 18.9007 14.5L18.8993 13.5C16.7426 13.5028 14.6648 14.3119 13.0741 15.7683L13.7494 16.5059ZM11.298 21.4607C11.4683 19.5611 12.3427 17.7938 13.7494 16.5059L13.0741 15.7683C11.4834 17.2247 10.4946 19.2232 10.302 21.3713L11.298 21.4607ZM9.49547 34.7671L11.2955 21.4831L10.3045 21.3489L8.50453 34.6329L9.49547 34.7671ZM9.5 35.15V34.7H8.5V35.15H9.5ZM10.2762 37.0238C9.7792 36.5269 9.5 35.8528 9.5 35.15H8.5C8.5 36.118 8.88455 37.0464 9.56906 37.7309L10.2762 37.0238ZM12.15 37.8C11.4472 37.8 10.7731 37.5208 10.2762 37.0238L9.56906 37.7309C10.2536 38.4154 11.182 38.8 12.15 38.8V37.8ZM14.0637 37.03C13.5487 37.4981 12.8731 37.8 12.15 37.8V38.8C13.1549 38.8 14.0633 38.3819 14.7363 37.77L14.0637 37.03ZM17.5 17.6V21.2H18.5V17.6H17.5ZM19.8 17.1H18V18.1H19.8V17.1ZM20.3 21.2V17.6H19.3V21.2H20.3ZM23.4 20.7H19.8V21.7H23.4V20.7ZM23.9 23V21.2H22.9V23H23.9ZM19.8 23.5H23.4V22.5H19.8V23.5ZM20.3 26.6V23H19.3V26.6H20.3ZM18 27.1H19.8V26.1H18V27.1ZM17.5 23V26.6H18.5V23H17.5ZM14.4 23.5H18V22.5H14.4V23.5ZM13.9 21.2V23H14.9V21.2H13.9ZM18 20.7H14.4V21.7H18V20.7ZM35.1 17.1C34.6094 17.1 34.1388 17.2949 33.7919 17.6419L34.499 18.349C34.6584 18.1896 34.8746 18.1 35.1 18.1V17.1ZM36.4081 17.6419C36.0612 17.2949 35.5906 17.1 35.1 17.1V18.1C35.3254 18.1 35.5416 18.1896 35.701 18.349L36.4081 17.6419ZM36.95 18.95C36.95 18.4593 36.7551 17.9888 36.4081 17.6419L35.701 18.349C35.8604 18.5084 35.95 18.7246 35.95 18.95H36.95ZM36.4081 20.2581C36.7551 19.9112 36.95 19.4407 36.95 18.95H35.95C35.95 19.1754 35.8604 19.3916 35.701 19.551L36.4081 20.2581ZM35.1 20.8C35.5906 20.8 36.0612 20.6051 36.4081 20.2581L35.701 19.551C35.5416 19.7104 35.3254 19.8 35.1 19.8V20.8ZM33.7919 20.2581C34.1388 20.6051 34.6094 20.8 35.1 20.8V19.8C34.8746 19.8 34.6584 19.7104 34.499 19.551L33.7919 20.2581ZM33.25 18.95C33.25 19.4407 33.4449 19.9112 33.7919 20.2581L34.499 19.551C34.3396 19.3916 34.25 19.1754 34.25 18.95H33.25ZM33.7919 17.6419C33.4449 17.9888 33.25 18.4593 33.25 18.95H34.25C34.25 18.7246 34.3396 18.5084 34.499 18.349L33.7919 17.6419ZM31.95 20.25C31.4593 20.25 30.9888 20.4449 30.6419 20.7919L31.349 21.499C31.5084 21.3396 31.7246 21.25 31.95 21.25V20.25ZM33.2581 20.7919C32.9112 20.4449 32.4407 20.25 31.95 20.25V21.25C32.1754 21.25 32.3916 21.3396 32.551 21.499L33.2581 20.7919ZM33.8 22.1C33.8 21.6093 33.6051 21.1388 33.2581 20.7919L32.551 21.499C32.7104 21.6584 32.8 21.8746 32.8 22.1H33.8ZM33.2581 23.4081C33.6051 23.0612 33.8 22.5907 33.8 22.1H32.8C32.8 22.3254 32.7104 22.5416 32.551 22.701L33.2581 23.4081ZM31.95 23.95C32.4407 23.95 32.9112 23.7551 33.2581 23.4081L32.551 22.701C32.3916 22.8604 32.1754 22.95 31.95 22.95V23.95ZM30.6419 23.4081C30.9888 23.7551 31.4593 23.95 31.95 23.95V22.95C31.7246 22.95 31.5084 22.8604 31.349 22.701L30.6419 23.4081ZM30.1 22.1C30.1 22.5907 30.2949 23.0612 30.6419 23.4081L31.349 22.701C31.1896 22.5416 31.1 22.3254 31.1 22.1H30.1ZM30.6419 20.7919C30.2949 21.1388 30.1 21.6093 30.1 22.1H31.1C31.1 21.8746 31.1896 21.6584 31.349 21.499L30.6419 20.7919ZM38.25 20.25C37.7593 20.25 37.2888 20.4449 36.9418 20.7919L37.649 21.499C37.8084 21.3396 38.0246 21.25 38.25 21.25V20.25ZM39.5581 20.7919C39.2112 20.4449 38.7407 20.25 38.25 20.25V21.25C38.4754 21.25 38.6916 21.3396 38.851 21.499L39.5581 20.7919ZM40.1 22.1C40.1 21.6093 39.9051 21.1388 39.5581 20.7919L38.851 21.499C39.0104 21.6584 39.1 21.8746 39.1 22.1H40.1ZM39.5581 23.4081C39.9051 23.0612 40.1 22.5907 40.1 22.1H39.1C39.1 22.3254 39.0104 22.5416 38.851 22.701L39.5581 23.4081ZM38.25 23.95C38.7406 23.95 39.2112 23.7551 39.5581 23.4081L38.851 22.701C38.6916 22.8604 38.4754 22.95 38.25 22.95V23.95ZM36.9418 23.4081C37.2888 23.7551 37.7593 23.95 38.25 23.95V22.95C38.0246 22.95 37.8084 22.8604 37.649 22.701L36.9418 23.4081ZM36.4 22.1C36.4 22.5907 36.5949 23.0612 36.9418 23.4081L37.649 22.701C37.4896 22.5416 37.4 22.3254 37.4 22.1H36.4ZM36.9418 20.7919C36.5949 21.1388 36.4 21.6093 36.4 22.1H37.4C37.4 21.8746 37.4896 21.6584 37.649 21.499L36.9418 20.7919ZM35.1 23.4C34.6093 23.4 34.1388 23.5949 33.7919 23.9419L34.499 24.649C34.6584 24.4896 34.8746 24.4 35.1 24.4V23.4ZM36.4081 23.9419C36.0612 23.5949 35.5906 23.4 35.1 23.4V24.4C35.3254 24.4 35.5416 24.4896 35.701 24.649L36.4081 23.9419ZM36.95 25.25C36.95 24.7594 36.7551 24.2888 36.4081 23.9419L35.701 24.649C35.8604 24.8084 35.95 25.0246 35.95 25.25H36.95ZM36.4081 26.5581C36.7551 26.2112 36.95 25.7406 36.95 25.25H35.95C35.95 25.4754 35.8604 25.6916 35.701 25.851L36.4081 26.5581ZM35.1 27.1C35.5906 27.1 36.0612 26.9051 36.4081 26.5581L35.701 25.851C35.5416 26.0104 35.3254 26.1 35.1 26.1V27.1ZM33.7919 26.5581C34.1388 26.9051 34.6093 27.1 35.1 27.1V26.1C34.8746 26.1 34.6584 26.0104 34.499 25.851L33.7919 26.5581ZM33.25 25.25C33.25 25.7406 33.4449 26.2112 33.7919 26.5581L34.499 25.851C34.3396 25.6916 34.25 25.4754 34.25 25.25H33.25ZM33.7919 23.9419C33.4449 24.2888 33.25 24.7594 33.25 25.25H34.25C34.25 25.0246 34.3396 24.8084 34.499 24.649L33.7919 23.9419Z" fill="#FFFF00"/>
</svg>
