<svg width="53" height="52" viewBox="0 0 53 52" fill="none" xmlns="http://www.w3.org/2000/svg">
<path fill-rule="evenodd" clip-rule="evenodd" d="M50 1H0V51H50V1ZM33.1823 17.2484L35.1022 15.7484C35.5507 15.3787 36.0969 15.1471 36.6745 15.082C37.2521 15.0168 37.8362 15.1209 38.3557 15.3814C38.8752 15.642 39.3079 16.0479 39.6011 16.5498C39.8943 17.0517 40.0354 17.6279 40.0073 18.2084V35.5934C40.0073 36.1345 39.7923 36.6534 39.4098 37.0359C39.0272 37.4185 38.5083 37.6334 37.9673 37.6334H33.1823V26.0534L25.0072 32.1884L16.8322 26.0534V37.6334H12.0473C11.5062 37.6334 10.9873 37.4185 10.6048 37.0359C10.2222 36.6534 10.0072 36.1345 10.0072 35.5934V18.2084C9.96646 17.6228 10.0984 17.0381 10.3867 16.5267C10.6749 16.0154 11.1069 15.5998 11.6291 15.3316C12.1512 15.0633 12.7406 14.9541 13.3242 15.0176C13.9078 15.081 14.4599 15.3143 14.9122 15.6884L16.8322 17.1884L25.0072 23.3234L33.1823 17.2484Z" fill="#47F4F4"/>
<path d="M2 1V0.5H1.5V1H2ZM52 1H52.5V0.5H52V1ZM2 51H1.5V51.5H2V51ZM52 51V51.5H52.5V51H52ZM37.1023 15.7484L37.4102 16.1426L37.4203 16.1342L37.1023 15.7484ZM35.1823 17.2484L35.4806 17.6499L35.4901 17.6425L35.1823 17.2484ZM38.6745 15.082L38.6184 14.5851L38.6184 14.5851L38.6745 15.082ZM40.3557 15.3814L40.5799 14.9345L40.5799 14.9345L40.3557 15.3814ZM41.6011 16.5498L41.1694 16.802L41.1694 16.802L41.6011 16.5498ZM42.0073 18.2084L41.5078 18.1842L41.5073 18.1963V18.2084H42.0073ZM41.4098 37.0359L41.7633 37.3895L41.7633 37.3895L41.4098 37.0359ZM35.1823 37.6334H34.6823V38.1334H35.1823V37.6334ZM35.1823 26.0534H35.6823V25.0531L34.8821 25.6535L35.1823 26.0534ZM27.0073 32.1884L26.7071 32.5884L27.0073 32.8136L27.3074 32.5884L27.0073 32.1884ZM18.8323 26.0534L19.1324 25.6535L18.3323 25.0531V26.0534H18.8323ZM18.8323 37.6334V38.1334H19.3323V37.6334H18.8323ZM12.0073 18.2084H12.5073V18.1911L12.506 18.1737L12.0073 18.2084ZM13.6291 15.3316L13.4006 14.8868L13.4006 14.8868L13.6291 15.3316ZM15.3242 15.0176L15.2702 15.5146L15.2702 15.5146L15.3242 15.0176ZM16.9123 15.6884L16.5934 16.0739L16.6044 16.0825L16.9123 15.6884ZM18.8323 17.1884L18.5244 17.5825L18.5321 17.5884L18.8323 17.1884ZM27.0073 23.3234L26.7071 23.7234L27.0058 23.9475L27.3055 23.7248L27.0073 23.3234ZM2 1.5H52V0.5H2V1.5ZM2.5 51V1H1.5V51H2.5ZM52 50.5H2V51.5H52V50.5ZM51.5 1V51H52.5V1H51.5ZM36.7944 15.3544L34.8744 16.8544L35.4901 17.6425L37.4101 16.1425L36.7944 15.3544ZM38.6184 14.5851C37.9446 14.6612 37.3074 14.9313 36.7842 15.3627L37.4203 16.1342C37.794 15.8261 38.2492 15.6331 38.7305 15.5788L38.6184 14.5851ZM40.5799 14.9345C39.9737 14.6305 39.2923 14.5091 38.6184 14.5851L38.7305 15.5788C39.2119 15.5245 39.6986 15.6112 40.1315 15.8284L40.5799 14.9345ZM42.0329 16.2976C41.6908 15.712 41.186 15.2385 40.5799 14.9345L40.1315 15.8284C40.5645 16.0455 40.9251 16.3838 41.1694 16.802L42.0329 16.2976ZM42.5067 18.2327C42.5395 17.5554 42.3749 16.8831 42.0329 16.2976L41.1694 16.802C41.4137 17.2202 41.5313 17.7004 41.5078 18.1842L42.5067 18.2327ZM42.5073 35.5934V18.2084H41.5073V35.5934H42.5073ZM41.7633 37.3895C42.2396 36.9132 42.5073 36.2671 42.5073 35.5934H41.5073C41.5073 36.0019 41.345 36.3936 41.0562 36.6824L41.7633 37.3895ZM39.9673 38.1334C40.6409 38.1334 41.287 37.8658 41.7633 37.3895L41.0562 36.6824C40.7674 36.9712 40.3757 37.1334 39.9673 37.1334V38.1334ZM35.1823 38.1334H39.9673V37.1334H35.1823V38.1334ZM34.6823 26.0534V37.6334H35.6823V26.0534H34.6823ZM27.3074 32.5884L35.4824 26.4534L34.8821 25.6535L26.7071 31.7885L27.3074 32.5884ZM18.5321 26.4534L26.7071 32.5884L27.3074 31.7885L19.1324 25.6535L18.5321 26.4534ZM19.3323 37.6334V26.0534H18.3323V37.6334H19.3323ZM14.0473 38.1334H18.8323V37.1334H14.0473V38.1334ZM12.2512 37.3895C12.7275 37.8658 13.3736 38.1334 14.0473 38.1334V37.1334C13.6388 37.1334 13.2471 36.9712 12.9583 36.6824L12.2512 37.3895ZM11.5073 35.5934C11.5073 36.2671 11.7749 36.9132 12.2512 37.3895L12.9583 36.6824C12.6695 36.3936 12.5073 36.0019 12.5073 35.5934H11.5073ZM11.5073 18.2084V35.5934H12.5073V18.2084H11.5073ZM11.9511 16.2812C11.6148 16.8778 11.4609 17.56 11.5085 18.2432L12.506 18.1737C12.4721 17.6857 12.582 17.1984 12.8222 16.7723L11.9511 16.2812ZM13.4006 14.8868C12.7914 15.1998 12.2874 15.6846 11.9511 16.2812L12.8222 16.7723C13.0625 16.3462 13.4224 15.9999 13.8576 15.7763L13.4006 14.8868ZM15.3782 14.5205C14.6974 14.4465 14.0097 14.5739 13.4006 14.8868L13.8576 15.7763C14.2927 15.5528 14.7838 15.4618 15.2702 15.5146L15.3782 14.5205ZM17.231 15.3032C16.7033 14.8666 16.0591 14.5945 15.3782 14.5205L15.2702 15.5146C15.7565 15.5675 16.2166 15.7619 16.5935 16.0737L17.231 15.3032ZM19.1401 16.7944L17.2201 15.2944L16.6044 16.0825L18.5244 17.5825L19.1401 16.7944ZM27.3074 22.9235L19.1324 16.7885L18.5321 17.5884L26.7071 23.7234L27.3074 22.9235ZM34.884 16.8471L26.709 22.9221L27.3055 23.7248L35.4805 17.6498L34.884 16.8471Z" fill="#FFFF00"/>
</svg>
