<svg width="53" height="52" viewBox="0 0 53 52" fill="none" xmlns="http://www.w3.org/2000/svg">
<path fill-rule="evenodd" clip-rule="evenodd" d="M0 1H50V51H0V1ZM37.925 19.986C37.9099 18.8499 37.6972 17.7252 37.2965 16.662C36.949 15.7652 36.4183 14.9508 35.7383 14.2708C35.0582 13.5907 34.2438 13.06 33.347 12.7125C32.2975 12.3185 31.1888 12.1055 30.068 12.0825C28.625 12.018 28.1675 12 24.5045 12C20.8415 12 20.372 12 18.9395 12.0825C17.8192 12.1057 16.711 12.3187 15.662 12.7125C14.7651 13.0597 13.9505 13.5904 13.2704 14.2704C12.5904 14.9505 12.0597 15.7651 11.7125 16.662C11.3177 17.7107 11.1052 18.8192 11.084 19.9395C11.0195 21.384 11 21.8415 11 25.5045C11 29.1675 11 29.6355 11.084 31.0695C11.1065 32.1915 11.318 33.2985 11.7125 34.35C12.0603 35.2466 12.5913 36.0609 13.2717 36.7407C13.952 37.4205 14.7666 37.9509 15.6635 38.298C16.7097 38.7078 17.8181 38.9361 18.941 38.973C20.3855 39.0375 20.843 39.057 24.506 39.057C28.169 39.057 28.6385 39.057 30.071 38.973C31.1917 38.9509 32.3005 38.7384 33.35 38.3445C34.2466 37.9966 35.0608 37.4658 35.7408 36.7858C36.4208 36.1058 36.9516 35.2915 37.2995 34.395C37.694 33.345 37.9055 32.238 37.928 31.1145C37.9925 29.6715 38.012 29.214 38.012 25.5495V25.4996C38.009 21.8822 38.0086 21.415 37.925 19.986ZM24.4955 32.4315C20.6645 32.4315 17.561 29.328 17.561 25.497C17.561 21.666 20.6645 18.5625 24.4955 18.5625C26.3347 18.5625 28.0984 19.2931 29.3989 20.5936C30.6994 21.894 31.43 23.6579 31.43 25.497C31.43 27.3361 30.6994 29.1 29.3989 30.4004C28.0984 31.7009 26.3347 32.4315 24.4955 32.4315ZM31.706 19.923C31.4936 19.9232 31.2832 19.8815 31.087 19.8003C30.8907 19.7191 30.7124 19.6 30.5622 19.4498C30.412 19.2996 30.2929 19.1213 30.2117 18.925C30.1305 18.7288 30.0888 18.5184 30.089 18.306C30.089 18.0938 30.1308 17.8836 30.212 17.6875C30.2932 17.4914 30.4123 17.3132 30.5624 17.1631C30.7125 17.0131 30.8907 16.894 31.0867 16.8128C31.2828 16.7316 31.493 16.6897 31.7053 16.6897C31.9175 16.6897 32.1277 16.7316 32.3238 16.8128C32.5199 16.894 32.698 17.0131 32.8481 17.1631C32.9982 17.3132 33.1172 17.4914 33.1985 17.6875C33.2797 17.8836 33.3215 18.0938 33.3215 18.306C33.3215 19.2 32.5985 19.923 31.706 19.923ZM29 25.497C29 27.9848 26.9833 30.0015 24.4955 30.0015C22.0077 30.0015 19.991 27.9848 19.991 25.497C19.991 23.0092 22.0077 20.9925 24.4955 20.9925C26.9833 20.9925 29 23.0092 29 25.497Z" fill="#47F4F4"/>
<path d="M52 1H52.5V0.5H52V1ZM2 1V0.5H1.5V1H2ZM52 51V51.5H52.5V51H52ZM2 51H1.5V51.5H2V51ZM39.2965 16.662L39.7644 16.4857L39.7627 16.4814L39.2965 16.662ZM39.925 19.986L39.425 19.9927L39.4252 20.0039L39.4259 20.0152L39.925 19.986ZM37.7383 14.2707L37.3847 14.6243L37.3847 14.6243L37.7383 14.2707ZM35.347 12.7125L35.5277 12.2462L35.5227 12.2444L35.347 12.7125ZM32.068 12.0825L32.0457 12.5821L32.0577 12.5824L32.068 12.0825ZM20.9395 12.0825L20.9498 12.5824L20.9591 12.5822L20.9682 12.5817L20.9395 12.0825ZM17.662 12.7125L17.4863 12.2444L17.4815 12.2462L17.662 12.7125ZM15.2704 14.2704L14.9169 13.9169L14.9169 13.9169L15.2704 14.2704ZM13.7125 16.662L13.2462 16.4815L13.2446 16.4859L13.7125 16.662ZM13.084 19.9395L13.5837 19.9618L13.5839 19.949L13.084 19.9395ZM13.084 31.0695L13.5839 31.0595L13.5837 31.0499L13.5831 31.0403L13.084 31.0695ZM13.7125 34.35L13.2443 34.5256L13.2463 34.5308L13.7125 34.35ZM15.2717 36.7407L15.6251 36.387L15.6251 36.387L15.2717 36.7407ZM17.6635 38.298L17.8459 37.8324L17.844 37.8317L17.6635 38.298ZM20.941 38.973L20.9633 38.4735L20.9574 38.4733L20.941 38.973ZM32.071 38.973L32.0612 38.4731L32.0514 38.4733L32.0417 38.4739L32.071 38.973ZM35.35 38.3445L35.5257 38.8126L35.5309 38.8106L35.35 38.3445ZM39.2995 34.395L39.7657 34.5759L39.7676 34.5709L39.2995 34.395ZM39.928 31.1145L39.4283 31.0922L39.4281 31.1045L39.928 31.1145ZM40.012 25.5495L40.512 25.5495L40.512 25.549L40.012 25.5495ZM40.012 25.4989L39.512 25.4993L39.512 25.4994L40.012 25.4989ZM31.3989 20.5936L31.7525 20.24L31.7525 20.24L31.3989 20.5936ZM33.43 25.497L32.93 25.497L32.93 25.497L33.43 25.497ZM31.3989 30.4004L31.7525 30.754L31.7525 30.754L31.3989 30.4004ZM33.706 19.923L33.706 19.423L33.7055 19.423L33.706 19.923ZM32.5622 19.4498L32.2086 19.8034L32.2086 19.8034L32.5622 19.4498ZM32.2117 18.925L32.6737 18.7339L32.6737 18.7339L32.2117 18.925ZM32.089 18.306L32.589 18.3065L32.589 18.306L32.089 18.306ZM32.212 17.6875L31.7501 17.4961L31.7501 17.4962L32.212 17.6875ZM33.0867 16.8128L33.2781 17.2747L33.2781 17.2747L33.0867 16.8128ZM33.7053 16.6898L33.7052 17.1898L33.7053 17.1898L33.7053 16.6898ZM34.3238 16.8128L34.1324 17.2747L34.1324 17.2747L34.3238 16.8128ZM34.8481 17.1631L35.2017 16.8096L35.2017 16.8096L34.8481 17.1631ZM52 0.5H2V1.5H52V0.5ZM52.5 51V1H51.5V51H52.5ZM2 51.5H52V50.5H2V51.5ZM1.5 1V51H2.5V1H1.5ZM38.8286 16.8383C39.2089 17.8472 39.4107 18.9146 39.425 19.9927L40.425 19.9793C40.4091 18.7853 40.1855 17.6031 39.7644 16.4857L38.8286 16.8383ZM37.3847 14.6243C38.0156 15.2552 38.5079 16.0107 38.8303 16.8427L39.7627 16.4814C39.3901 15.5197 38.821 14.6464 38.0918 13.9172L37.3847 14.6243ZM35.1664 13.1787C35.9983 13.5011 36.7538 13.9934 37.3847 14.6243L38.0918 13.9172C37.3626 13.188 36.4893 12.6189 35.5276 12.2463L35.1664 13.1787ZM32.0577 12.5824C33.1219 12.6042 34.1747 12.8065 35.1713 13.1806L35.5227 12.2444C34.4203 11.8306 33.2556 11.6068 32.0783 11.5826L32.0577 12.5824ZM26.5045 12.5C30.1643 12.5 30.6134 12.518 32.0457 12.582L32.0903 11.583C30.6366 11.518 30.1707 11.5 26.5045 11.5V12.5ZM20.9682 12.5817C22.3838 12.5002 22.8384 12.5 26.5045 12.5V11.5C22.8446 11.5 22.3602 11.4998 20.9108 11.5833L20.9682 12.5817ZM17.8377 13.1806C18.8338 12.8067 19.8861 12.6044 20.9498 12.5824L20.9292 11.5826C19.7524 11.607 18.5882 11.8307 17.4863 12.2444L17.8377 13.1806ZM15.624 14.624C16.2549 13.9931 17.0105 13.5009 17.8425 13.1788L17.4815 12.2462C16.5197 12.6186 15.6462 13.1876 14.9169 13.9169L15.624 14.624ZM14.1788 16.8425C14.5009 16.0105 14.9931 15.2549 15.624 14.624L14.9169 13.9169C14.1876 14.6462 13.6186 15.5197 13.2462 16.4815L14.1788 16.8425ZM13.5839 19.949C13.604 18.8856 13.8058 17.8335 14.1804 16.8381L13.2446 16.4859C12.8297 17.5879 12.6064 18.7527 12.5841 19.93L13.5839 19.949ZM13.5 25.5045C13.5 21.8451 13.5195 21.3959 13.5835 19.9618L12.5845 19.9172C12.5195 21.3722 12.5 21.8379 12.5 25.5045H13.5ZM13.5831 31.0403C13.5002 29.6235 13.5 29.1707 13.5 25.5045H12.5C12.5 29.1643 12.4998 29.6475 12.5849 31.0987L13.5831 31.0403ZM14.1806 34.1744C13.8061 33.1761 13.6053 32.1251 13.5839 31.0595L12.5841 31.0795C12.6077 32.2579 12.8299 33.4209 13.2444 34.5256L14.1806 34.1744ZM15.6251 36.387C14.994 35.7563 14.5013 35.001 14.1787 34.1692L13.2463 34.5308C13.6193 35.4923 14.1887 36.3654 14.9182 37.0943L15.6251 36.387ZM17.844 37.8317C17.0119 37.5097 16.2562 37.0176 15.6251 36.387L14.9182 37.0943C15.6477 37.8233 16.5213 38.3921 17.483 38.7643L17.844 37.8317ZM20.9574 38.4733C19.8913 38.4382 18.8391 38.2215 17.8459 37.8324L17.4811 38.7636C18.5802 39.1941 19.7448 39.4339 20.9246 39.4727L20.9574 38.4733ZM26.506 38.557C22.8466 38.557 22.3974 38.5375 20.9633 38.4735L20.9187 39.4725C22.3737 39.5375 22.8394 39.557 26.506 39.557V38.557ZM32.0417 38.4739C30.6265 38.5568 30.1722 38.557 26.506 38.557V39.557C30.1658 39.557 30.6505 39.5572 32.1003 39.4721L32.0417 38.4739ZM35.1743 37.8764C34.1779 38.2504 33.1252 38.4521 32.0612 38.4731L32.0808 39.4729C33.2583 39.4497 34.4232 39.2264 35.5257 38.8126L35.1743 37.8764ZM37.3872 36.4322C36.7563 37.0631 36.0009 37.5556 35.1691 37.8784L35.5309 38.8106C36.4922 38.4376 37.3652 37.8684 38.0943 37.1393L37.3872 36.4322ZM38.8334 34.2141C38.5106 35.0459 38.0181 35.8013 37.3872 36.4322L38.0943 37.1393C38.8234 36.4102 39.3926 35.5372 39.7656 34.5759L38.8334 34.2141ZM39.4281 31.1045C39.4067 32.1717 39.2059 33.2226 38.8314 34.2191L39.7676 34.5709C40.1821 33.4674 40.4043 32.3043 40.4279 31.1245L39.4281 31.1045ZM39.512 25.5495C39.512 29.2104 39.4925 29.6596 39.4285 31.0922L40.4275 31.1368C40.4925 29.6834 40.512 29.2176 40.512 25.5495H39.512ZM39.512 25.4994L39.512 25.55L40.512 25.549L40.512 25.4984L39.512 25.4994ZM39.4259 20.0152C39.5085 21.4271 39.509 21.8796 39.512 25.4993L40.512 25.4985C40.509 21.8848 40.5088 21.4026 40.4241 19.9568L39.4259 20.0152ZM19.061 25.497C19.061 29.6041 22.3884 32.9315 26.4955 32.9315V31.9315C22.9406 31.9315 20.061 29.0519 20.061 25.497H19.061ZM26.4955 18.0625C22.3884 18.0625 19.061 21.3899 19.061 25.497H20.061C20.061 21.9421 22.9406 19.0625 26.4955 19.0625V18.0625ZM31.7525 20.24C30.3582 18.8458 28.4673 18.0625 26.4955 18.0625V19.0625C28.202 19.0625 29.8387 19.7404 31.0454 20.9471L31.7525 20.24ZM33.93 25.497C33.93 23.5252 33.1467 21.6343 31.7525 20.24L31.0454 20.9471C32.2521 22.1538 32.93 23.7905 32.93 25.497L33.93 25.497ZM31.7525 30.754C33.1467 29.3597 33.93 27.4688 33.93 25.497L32.93 25.497C32.93 27.2035 32.2521 28.8402 31.0454 30.0469L31.7525 30.754ZM26.4955 32.9315C28.4673 32.9315 30.3582 32.1482 31.7525 30.754L31.0454 30.0469C29.8387 31.2536 28.202 31.9315 26.4955 31.9315V32.9315ZM32.8958 20.2623C33.1529 20.3687 33.4283 20.4233 33.7065 20.423L33.7055 19.423C33.5589 19.4231 33.4136 19.3943 33.2781 19.3383L32.8958 20.2623ZM32.2086 19.8034C32.4053 20.0001 32.6388 20.156 32.8958 20.2623L33.2781 19.3383C33.1426 19.2822 33.0194 19.2 32.9157 19.0963L32.2086 19.8034ZM31.7497 19.1162C31.856 19.3732 32.0119 19.6067 32.2086 19.8034L32.9157 19.0963C32.812 18.9926 32.7298 18.8694 32.6737 18.7339L31.7497 19.1162ZM31.589 18.3055C31.5887 18.5837 31.6433 18.8591 31.7497 19.1162L32.6737 18.7339C32.6177 18.5984 32.5889 18.4531 32.589 18.3065L31.589 18.3055ZM31.7501 17.4962C31.6437 17.7529 31.589 18.0281 31.589 18.306L32.589 18.306C32.589 18.1594 32.6179 18.0143 32.674 17.8788L31.7501 17.4962ZM32.2088 16.8096C32.0123 17.0061 31.8564 17.2394 31.7501 17.4961L32.674 17.8788C32.7301 17.7434 32.8123 17.6203 32.9159 17.5167L32.2088 16.8096ZM32.8954 16.3508C32.6386 16.4572 32.4053 16.6131 32.2088 16.8096L32.9159 17.5167C33.0196 17.413 33.1427 17.3308 33.2781 17.2747L32.8954 16.3508ZM33.7053 16.1898C33.4273 16.1897 33.1522 16.2445 32.8954 16.3508L33.2781 17.2747C33.4135 17.2186 33.5587 17.1898 33.7052 17.1898L33.7053 16.1898ZM34.5151 16.3508C34.2584 16.2445 33.9832 16.1897 33.7052 16.1898L33.7053 17.1898C33.8518 17.1898 33.997 17.2186 34.1324 17.2747L34.5151 16.3508ZM35.2017 16.8096C35.0052 16.6131 34.7719 16.4572 34.5151 16.3508L34.1324 17.2747C34.2679 17.3308 34.3909 17.413 34.4946 17.5167L35.2017 16.8096ZM35.6604 17.4962C35.5541 17.2394 35.3982 17.0061 35.2017 16.8096L34.4946 17.5167C34.5982 17.6203 34.6804 17.7434 34.7365 17.8788L35.6604 17.4962ZM35.8215 18.306C35.8215 18.0281 35.7668 17.7529 35.6604 17.4962L34.7365 17.8788C34.7926 18.0143 34.8215 18.1594 34.8215 18.306H35.8215ZM33.706 20.423C34.8749 20.423 35.8215 19.4758 35.8215 18.306H34.8215C34.8215 18.9242 34.3221 19.423 33.706 19.423V20.423ZM26.4955 30.5015C29.2594 30.5015 31.5 28.2609 31.5 25.497H30.5C30.5 27.7086 28.7071 29.5015 26.4955 29.5015V30.5015ZM21.491 25.497C21.491 28.2609 23.7316 30.5015 26.4955 30.5015V29.5015C24.2839 29.5015 22.491 27.7086 22.491 25.497H21.491ZM26.4955 20.4925C23.7316 20.4925 21.491 22.7331 21.491 25.497H22.491C22.491 23.2854 24.2839 21.4925 26.4955 21.4925V20.4925ZM31.5 25.497C31.5 22.7331 29.2594 20.4925 26.4955 20.4925V21.4925C28.7071 21.4925 30.5 23.2854 30.5 25.497H31.5Z" fill="#FFFF00"/>
</svg>
