<svg width="53" height="52" viewBox="0 0 53 52" fill="none" xmlns="http://www.w3.org/2000/svg">
<path d="M0 1V51H50V1H0ZM26.7857 39.8393C26.7857 44.7065 23.9107 47.0792 19.7489 47.0792C15.99 47.0792 13.808 45.1328 12.7009 42.7835L16.5268 40.4676C17.2645 41.7768 17.8248 42.8839 19.4353 42.8839C20.7746 42.8839 21.875 42.2801 21.875 39.9308V24.2143H26.7857V39.8393ZM37.8739 46.9676C33.5112 46.9676 30.692 44.9989 29.3158 42.2801L33.1473 40.0625C34.1518 41.7076 35.4632 42.8036 37.779 42.8036C39.7254 42.8036 40.856 41.942 40.856 40.5993C40.856 38.9888 39.692 38.4185 37.5435 37.4743L36.3694 36.9699C32.9788 35.5279 30.731 33.7154 30.731 29.8884C30.731 26.365 33.4152 23.7913 37.6105 23.7913C40.5982 23.7913 42.7444 24.7199 44.2902 27.4386L40.625 29.7946C39.8192 28.3516 38.9509 27.7857 37.6049 27.7857C36.2288 27.7857 35.356 28.6585 35.356 29.7946C35.356 31.2042 36.2288 31.7746 38.2422 32.6473L39.4163 33.1507C43.4107 34.8627 45.6596 36.6105 45.6596 40.5346C45.6607 44.7645 42.3382 46.9676 37.8739 46.9676Z" fill="#47F4F4"/>
<path d="M2 1V51H52V1H2ZM28.7857 39.8393C28.7857 44.7065 25.9107 47.0792 21.7489 47.0792C17.99 47.0792 15.808 45.1328 14.7009 42.7835L18.5268 40.4676C19.2645 41.7768 19.8248 42.8839 21.4353 42.8839C22.7746 42.8839 23.875 42.2801 23.875 39.9308V24.2143H28.7857V39.8393ZM39.8739 46.9676C35.5112 46.9676 32.692 44.9989 31.3158 42.2801L35.1473 40.0625C36.1518 41.7076 37.4632 42.8036 39.779 42.8036C41.7254 42.8036 42.856 41.942 42.856 40.5993C42.856 38.9888 41.692 38.4185 39.5435 37.4743L38.3694 36.9699C34.9788 35.5279 32.731 33.7154 32.731 29.8884C32.731 26.365 35.4152 23.7913 39.6105 23.7913C42.5982 23.7913 44.7444 24.7199 46.2902 27.4386L42.625 29.7946C41.8192 28.3516 40.9509 27.7857 39.6049 27.7857C38.2288 27.7857 37.356 28.6585 37.356 29.7946C37.356 31.2042 38.2288 31.7746 40.2422 32.6473L41.4163 33.1507C45.4107 34.8627 47.6596 36.6105 47.6596 40.5346C47.6607 44.7645 44.3382 46.9676 39.8739 46.9676Z" stroke="#FFFF00"/>
</svg>
