<svg width="53" height="52" viewBox="0 0 53 52" fill="none" xmlns="http://www.w3.org/2000/svg">
<path fill-rule="evenodd" clip-rule="evenodd" d="M50 1H0V51H50V1ZM8.36717 14.8367C9.27226 12.6528 10.6 10.6692 12.274 9L14.812 11.538C12.202 14.13 10.6 17.748 10.6 21.726C10.5924 23.6185 10.9608 25.4936 11.6839 27.2426C12.4069 28.9915 13.4702 30.5794 14.812 31.914L12.274 34.452C9.01601 31.194 7.00001 26.694 7.00001 21.726C6.99747 19.3619 7.46209 17.0207 8.36717 14.8367ZM35.188 11.538L37.726 9C40.984 12.258 43 16.758 43 21.726C43.0025 24.09 42.5379 26.4313 41.6328 28.6152C40.7277 30.7992 39.4 32.7828 37.726 34.452L35.188 31.914C37.798 29.322 39.4 25.722 39.4 21.726C39.4059 19.8337 39.0367 17.9591 38.3138 16.2104C37.5908 14.4617 36.5284 12.8736 35.188 11.538ZM15.0225 17.5939C15.5661 16.2841 16.3632 15.0947 17.368 14.094L19.906 16.632C18.61 17.928 17.8 19.728 17.8 21.726C17.7983 22.6719 17.9834 23.6089 18.3448 24.4831C18.7063 25.3573 19.2368 26.1514 19.906 26.82L17.368 29.358C15.406 27.396 14.2 24.696 14.2 21.726C14.1993 20.3079 14.4788 18.9036 15.0225 17.5939ZM30.094 16.632L32.632 14.094C34.594 16.056 35.8 18.756 35.8 21.726C35.8007 23.1441 35.5212 24.5484 34.9775 25.8581C34.4339 27.1678 33.6368 28.3573 32.632 29.358L30.094 26.82C31.39 25.524 32.2 23.724 32.2 21.726C32.2017 20.7801 32.0166 19.8431 31.6552 18.9689C31.2937 18.0947 30.7632 17.3006 30.094 16.632ZM22.4544 19.1804C23.1295 18.5053 24.0452 18.126 25 18.126C25.9548 18.126 26.8705 18.5053 27.5456 19.1804C28.2207 19.8555 28.6 20.7712 28.6 21.726C28.6 22.6808 28.2207 23.5964 27.5456 24.2716C26.8705 24.9467 25.9548 25.326 25 25.326C24.0452 25.326 23.1295 24.9467 22.4544 24.2716C21.7793 23.5964 21.4 22.6808 21.4 21.726C21.4 20.7712 21.7793 19.8555 22.4544 19.1804ZM23.2 36.126V28.926H26.8V36.126H28.6C29.0774 36.126 29.5352 36.3156 29.8728 36.6532C30.2104 36.9908 30.4 37.4486 30.4 37.926H43V41.526H30.4C30.4 42.0034 30.2104 42.4612 29.8728 42.7988C29.5352 43.1363 29.0774 43.326 28.6 43.326H21.4C20.9226 43.326 20.4648 43.1363 20.1272 42.7988C19.7896 42.4612 19.6 42.0034 19.6 41.526H7.00001V37.926H19.6C19.6 37.4486 19.7896 36.9908 20.1272 36.6532C20.4648 36.3156 20.9226 36.126 21.4 36.126H23.2Z" fill="#47F4F4"/>
<path d="M2 1V0.5H1.5V1H2ZM52 1H52.5V0.5H52V1ZM2 51H1.5V51.5H2V51ZM52 51V51.5H52.5V51H52ZM14.274 9L14.6276 8.64645L14.2745 8.2934L13.921 8.64594L14.274 9ZM10.3672 14.8367L9.90527 14.6453L10.3672 14.8367ZM16.812 11.538L17.1643 11.8928L17.5203 11.5392L17.1656 11.1844L16.812 11.538ZM12.6 21.726L13.1 21.728V21.726H12.6ZM13.6839 27.2426L14.1459 27.0515H14.1459L13.6839 27.2426ZM16.812 31.914L17.1656 32.2675L17.5201 31.913L17.1646 31.5595L16.812 31.914ZM14.274 34.452L13.9205 34.8055L14.274 35.1591L14.6276 34.8055L14.274 34.452ZM9.00001 21.726H9.50001L9.50001 21.7255L9.00001 21.726ZM39.726 9L40.0795 8.64645L39.726 8.29289L39.3724 8.64645L39.726 9ZM37.188 11.538L36.8344 11.1844L36.4803 11.5386L36.8351 11.8922L37.188 11.538ZM45 21.726H44.5V21.7265L45 21.726ZM39.726 34.452L39.3724 34.8055L39.7255 35.1586L40.079 34.806L39.726 34.452ZM37.188 31.914L36.8357 31.5592L36.4797 31.9128L36.8344 32.2675L37.188 31.914ZM41.4 21.726L40.9 21.7244V21.726H41.4ZM19.368 14.094L19.7216 13.7404L19.3687 13.3876L19.0152 13.7397L19.368 14.094ZM17.0225 17.5939L16.5607 17.4022L17.0225 17.5939ZM21.906 16.632L22.2596 16.9855L22.6131 16.632L22.2596 16.2784L21.906 16.632ZM19.8 21.726L20.3 21.7269V21.726H19.8ZM21.906 26.82L22.2596 27.1735L22.6133 26.8198L22.2594 26.4663L21.906 26.82ZM19.368 29.358L19.0145 29.7115L19.368 30.0651L19.7216 29.7115L19.368 29.358ZM16.2 21.726H16.7V21.7257L16.2 21.726ZM34.632 14.094L34.9855 13.7404L34.632 13.3869L34.2784 13.7404L34.632 14.094ZM32.094 16.632L31.7404 16.2784L31.3867 16.6322L31.7406 16.9857L32.094 16.632ZM37.8 21.726H37.3V21.7262L37.8 21.726ZM36.9775 25.8581L37.4393 26.0498V26.0498L36.9775 25.8581ZM34.632 29.358L34.2784 29.7115L34.6313 30.0644L34.9848 29.7123L34.632 29.358ZM32.094 26.82L31.7404 26.4664L31.3869 26.82L31.7404 27.1735L32.094 26.82ZM34.2 21.726L33.7 21.7251V21.726H34.2ZM29.5456 19.1804L29.192 19.534L29.5456 19.1804ZM29.5456 24.2716L29.192 23.918L29.5456 24.2716ZM25.2 28.926V28.426H24.7V28.926H25.2ZM25.2 36.126V36.626H25.7V36.126H25.2ZM28.8 28.926H29.3V28.426H28.8V28.926ZM28.8 36.126H28.3V36.626H28.8V36.126ZM32.4 37.926H31.9V38.426H32.4V37.926ZM45 37.926H45.5V37.426H45V37.926ZM45 41.526V42.026H45.5V41.526H45ZM32.4 41.526V41.026H31.9V41.526H32.4ZM22.1272 42.7988L21.7737 43.1523L22.1272 42.7988ZM21.6 41.526H22.1V41.026H21.6V41.526ZM9.00001 41.526H8.50001V42.026H9.00001V41.526ZM9.00001 37.926V37.426H8.50001V37.926H9.00001ZM21.6 37.926V38.426H22.1V37.926H21.6ZM22.1272 36.6532L21.7737 36.2996L22.1272 36.6532ZM2 1.5H52V0.5H2V1.5ZM2.5 51V1H1.5V51H2.5ZM52 50.5H2V51.5H52V50.5ZM51.5 1V51H52.5V1H51.5ZM13.921 8.64594C12.2003 10.3617 10.8356 12.4005 9.90527 14.6453L10.8291 15.0282C11.7089 12.9051 12.9997 10.9768 14.6271 9.35406L13.921 8.64594ZM17.1656 11.1844L14.6276 8.64645L13.9205 9.35355L16.4585 11.8916L17.1656 11.1844ZM13.1 21.726C13.1 17.8842 14.6467 14.393 17.1643 11.8928L16.4597 11.1832C13.7573 13.867 12.1 17.6118 12.1 21.726H13.1ZM14.1459 27.0515C13.4482 25.3638 13.0927 23.5543 13.1 21.728L12.1 21.724C12.0921 23.6827 12.4734 25.6235 13.2218 27.4336L14.1459 27.0515ZM17.1646 31.5595C15.8698 30.2716 14.8437 28.7393 14.1459 27.0515L13.2218 27.4336C13.9702 29.2437 15.0707 30.8872 16.4594 32.2685L17.1646 31.5595ZM14.6276 34.8055L17.1656 32.2675L16.4585 31.5604L13.9205 34.0984L14.6276 34.8055ZM8.50001 21.726C8.50001 26.8321 10.5726 31.4577 13.9205 34.8055L14.6276 34.0984C11.4594 30.9303 9.50001 26.5559 9.50001 21.726H8.50001ZM9.90527 14.6453C8.97496 16.8901 8.4974 19.2966 8.50001 21.7265L9.50001 21.7255C9.49754 19.4273 9.94921 17.1513 10.8291 15.0282L9.90527 14.6453ZM39.3724 8.64645L36.8344 11.1844L37.5415 11.8916L40.0795 9.35355L39.3724 8.64645ZM45.5 21.726C45.5 16.6199 43.4274 11.9943 40.0795 8.64645L39.3724 9.35355C42.5406 12.5217 44.5 16.8961 44.5 21.726H45.5ZM44.0947 28.8067C45.025 26.5619 45.5026 24.1554 45.5 21.7255L44.5 21.7265C44.5025 24.0247 44.0508 26.3007 43.1709 28.4238L44.0947 28.8067ZM40.079 34.806C41.7997 33.0903 43.1644 31.0515 44.0947 28.8067L43.1709 28.4238C42.2911 30.5469 41.0003 32.4752 39.373 34.0979L40.079 34.806ZM36.8344 32.2675L39.3724 34.8055L40.0795 34.0984L37.5415 31.5604L36.8344 32.2675ZM40.9 21.726C40.9 25.5855 39.3535 29.0587 36.8357 31.5592L37.5403 32.2688C40.2425 29.5853 41.9 25.8585 41.9 21.726H40.9ZM39.8517 16.4014C40.5494 18.0891 40.9057 19.8983 40.9 21.7244L41.9 21.7276C41.9061 19.7692 41.524 17.8291 40.7758 16.0194L39.8517 16.4014ZM36.8351 11.8922C38.1287 13.1812 39.154 14.7138 39.8517 16.4014L40.7758 16.0194C40.0276 14.2096 38.9281 12.5661 37.5409 11.1838L36.8351 11.8922ZM19.0152 13.7397C17.9637 14.787 17.1296 16.0316 16.5607 17.4022L17.4843 17.7856C18.0027 16.5367 18.7628 15.4025 19.7208 14.4483L19.0152 13.7397ZM22.2596 16.2784L19.7216 13.7404L19.0145 14.4476L21.5525 16.9855L22.2596 16.2784ZM20.3 21.726C20.3 19.8659 21.0535 18.1916 22.2596 16.9855L21.5525 16.2784C20.1665 17.6644 19.3 19.5901 19.3 21.726H20.3ZM20.8069 24.292C20.4707 23.4787 20.2984 22.607 20.3 21.7269L19.3 21.7251C19.2982 22.7369 19.4962 23.7391 19.8828 24.6741L20.8069 24.292ZM22.2594 26.4663C21.6368 25.8442 21.1432 25.1054 20.8069 24.292L19.8828 24.6741C20.2694 25.6091 20.8368 26.4586 21.5526 27.1737L22.2594 26.4663ZM19.7216 29.7115L22.2596 27.1735L21.5525 26.4664L19.0145 29.0044L19.7216 29.7115ZM15.7 21.726C15.7 24.8342 16.9627 27.6598 19.0145 29.7115L19.7216 29.0044C17.8493 27.1322 16.7 24.5578 16.7 21.726H15.7ZM16.5607 17.4022C15.9917 18.7728 15.6993 20.2423 15.7 21.7262L16.7 21.7257C16.6993 20.3735 16.9658 19.0345 17.4843 17.7856L16.5607 17.4022ZM34.2784 13.7404L31.7404 16.2784L32.4476 16.9855L34.9855 14.4476L34.2784 13.7404ZM38.3 21.726C38.3 18.6178 37.0373 15.7922 34.9855 13.7404L34.2784 14.4475C36.1507 16.3198 37.3 18.8942 37.3 21.726H38.3ZM37.4393 26.0498C38.0083 24.6792 38.3007 23.2097 38.3 21.7257L37.3 21.7262C37.3007 23.0785 37.0342 24.4175 36.5157 25.6664L37.4393 26.0498ZM34.9848 29.7123C36.0363 28.665 36.8704 27.4204 37.4393 26.0498L36.5157 25.6664C35.9973 26.9153 35.2372 28.0495 34.2792 29.0037L34.9848 29.7123ZM31.7404 27.1735L34.2784 29.7115L34.9855 29.0044L32.4476 26.4664L31.7404 27.1735ZM33.7 21.726C33.7 23.5861 32.9465 25.2604 31.7404 26.4664L32.4476 27.1735C33.8335 25.7876 34.7 23.8619 34.7 21.726H33.7ZM33.1931 19.1599C33.5293 19.9733 33.7016 20.845 33.7 21.7251L34.7 21.7269C34.7018 20.7151 34.5038 19.7129 34.1172 18.7779L33.1931 19.1599ZM31.7406 16.9857C32.3632 17.6077 32.8568 18.3466 33.1931 19.1599L34.1172 18.7779C33.7306 17.8428 33.1632 16.9934 32.4474 16.2783L31.7406 16.9857ZM27 17.626C25.9126 17.626 24.8698 18.058 24.1009 18.8269L24.808 19.534C25.3893 18.9526 26.1778 18.626 27 18.626V17.626ZM29.8991 18.8269C29.1302 18.058 28.0874 17.626 27 17.626V18.626C27.8222 18.626 28.6107 18.9526 29.192 19.534L29.8991 18.8269ZM31.1 21.726C31.1 20.6386 30.668 19.5958 29.8991 18.8269L29.192 19.534C29.7734 20.1153 30.1 20.9038 30.1 21.726H31.1ZM29.8991 24.6251C30.668 23.8562 31.1 22.8134 31.1 21.726H30.1C30.1 22.5482 29.7734 23.3367 29.192 23.918L29.8991 24.6251ZM27 25.826C28.0874 25.826 29.1302 25.394 29.8991 24.6251L29.192 23.918C28.6107 24.4994 27.8222 24.826 27 24.826V25.826ZM24.1009 24.6251C24.8698 25.394 25.9126 25.826 27 25.826V24.826C26.1778 24.826 25.3893 24.4994 24.808 23.918L24.1009 24.6251ZM22.9 21.726C22.9 22.8134 23.332 23.8562 24.1009 24.6251L24.808 23.918C24.2266 23.3367 23.9 22.5482 23.9 21.726H22.9ZM24.1009 18.8269C23.332 19.5958 22.9 20.6386 22.9 21.726H23.9C23.9 20.9038 24.2266 20.1153 24.808 19.534L24.1009 18.8269ZM24.7 28.926V36.126H25.7V28.926H24.7ZM28.8 28.426H25.2V29.426H28.8V28.426ZM29.3 36.126V28.926H28.3V36.126H29.3ZM30.6 35.626H28.8V36.626H30.6V35.626ZM32.2263 36.2996C31.795 35.8683 31.21 35.626 30.6 35.626V36.626C30.9448 36.626 31.2754 36.7629 31.5192 37.0067L32.2263 36.2996ZM32.9 37.926C32.9 37.316 32.6577 36.731 32.2263 36.2996L31.5192 37.0067C31.763 37.2505 31.9 37.5812 31.9 37.926H32.9ZM45 37.426H32.4V38.426H45V37.426ZM45.5 41.526V37.926H44.5V41.526H45.5ZM32.4 42.026H45V41.026H32.4V42.026ZM32.2263 43.1523C32.6577 42.721 32.9 42.136 32.9 41.526H31.9C31.9 41.8708 31.763 42.2014 31.5192 42.4452L32.2263 43.1523ZM30.6 43.826C31.21 43.826 31.795 43.5837 32.2263 43.1523L31.5192 42.4452C31.2754 42.689 30.9448 42.826 30.6 42.826V43.826ZM23.4 43.826H30.6V42.826H23.4V43.826ZM21.7737 43.1523C22.205 43.5837 22.79 43.826 23.4 43.826V42.826C23.0552 42.826 22.7246 42.689 22.4808 42.4452L21.7737 43.1523ZM21.1 41.526C21.1 42.136 21.3423 42.721 21.7737 43.1523L22.4808 42.4452C22.237 42.2014 22.1 41.8708 22.1 41.526H21.1ZM9.00001 42.026H21.6V41.026H9.00001V42.026ZM8.50001 37.926V41.526H9.50001V37.926H8.50001ZM21.6 37.426H9.00001V38.426H21.6V37.426ZM21.7737 36.2996C21.3423 36.731 21.1 37.316 21.1 37.926H22.1C22.1 37.5812 22.237 37.2505 22.4808 37.0067L21.7737 36.2996ZM23.4 35.626C22.79 35.626 22.205 35.8683 21.7737 36.2996L22.4808 37.0067C22.7246 36.7629 23.0552 36.626 23.4 36.626V35.626ZM25.2 35.626H23.4V36.626H25.2V35.626Z" fill="#FFFF00"/>
</svg>
