<svg width="53" height="52" viewBox="0 0 53 52" fill="none" xmlns="http://www.w3.org/2000/svg">
<path fill-rule="evenodd" clip-rule="evenodd" d="M50 1H0V51H50V1ZM10.4019 24.4211L36.9969 14.1656C38.2104 13.6166 39.3834 14.4581 38.9199 16.3166L34.3914 37.6586C34.0749 39.1766 33.1614 39.5366 31.8894 38.8361L24.9909 33.7406L21.6744 36.9656L21.6375 37.0012C21.2675 37.359 20.9608 37.6556 20.2929 37.6556L20.7639 30.6176L20.7609 30.6161H20.7639L33.5634 19.0646C34.1244 18.5666 33.4419 18.3221 32.6949 18.7766L16.8969 28.7441L10.0689 26.6141C8.59741 26.1626 8.58691 25.1501 10.4019 24.4211Z" fill="#47F4F4"/>
<path d="M2 1V0.5H1.5V1H2ZM52 1H52.5V0.5H52V1ZM2 51H1.5V51.5H2V51ZM52 51V51.5H52.5V51H52ZM38.9969 14.1656L39.1768 14.6321L39.1901 14.627L39.203 14.6211L38.9969 14.1656ZM12.4019 24.4211L12.222 23.9545L12.2156 23.9571L12.4019 24.4211ZM40.9199 16.3166L40.4348 16.1956L40.4326 16.2041L40.4308 16.2128L40.9199 16.3166ZM36.3914 37.6586L35.9023 37.5548L35.9019 37.5565L36.3914 37.6586ZM33.8894 38.8361L33.5923 39.2382L33.6191 39.258L33.6482 39.274L33.8894 38.8361ZM26.9909 33.7406L27.288 33.3384L26.9466 33.0862L26.6423 33.3821L26.9909 33.7406ZM23.6744 36.9656L24.0216 37.3254L24.023 37.324L23.6744 36.9656ZM23.6375 37.0012L23.2899 36.6418L23.2899 36.6418L23.6375 37.0012ZM22.2929 37.6556L21.794 37.6222L21.7583 38.1556H22.2929V37.6556ZM22.7639 30.6176L23.2628 30.6509L23.285 30.319L22.9874 30.1703L22.7639 30.6176ZM22.7609 30.6161V30.1161L22.5374 31.0633L22.7609 30.6161ZM22.7639 30.6161V31.1161H22.9562L23.0989 30.9872L22.7639 30.6161ZM35.5634 19.0646L35.2315 18.6906L35.2284 18.6934L35.5634 19.0646ZM34.6949 18.7766L34.435 18.3494L34.4281 18.3537L34.6949 18.7766ZM18.8969 28.7441L18.748 29.2214L18.9684 29.2901L19.1637 29.1669L18.8969 28.7441ZM12.0689 26.6141L12.2178 26.1367L12.2156 26.1361L12.0689 26.6141ZM2 1.5H52V0.5H2V1.5ZM2.5 51V1H1.5V51H2.5ZM52 50.5H2V51.5H52V50.5ZM51.5 1V51H52.5V1H51.5ZM38.817 13.699L12.222 23.9545L12.5818 24.8876L39.1768 14.6321L38.817 13.699ZM41.4051 16.4376C41.6622 15.4066 41.4956 14.5208 40.9348 13.9787C40.3673 13.4302 39.5385 13.3718 38.7908 13.71L39.203 14.6211C39.6688 14.4104 40.0333 14.4982 40.2398 14.6978C40.453 14.9038 40.6412 15.368 40.4348 16.1956L41.4051 16.4376ZM36.8805 37.7623L41.409 16.4203L40.4308 16.2128L35.9023 37.5548L36.8805 37.7623ZM33.6482 39.274C34.3416 39.6559 35.0668 39.822 35.704 39.5352C36.3441 39.247 36.7087 38.5863 36.8809 37.7606L35.9019 37.5565C35.7576 38.2488 35.5072 38.5271 35.2935 38.6233C35.0768 38.7209 34.7092 38.7167 34.1306 38.3981L33.6482 39.274ZM26.6938 34.1427L33.5923 39.2382L34.1865 38.4339L27.288 33.3384L26.6938 34.1427ZM24.023 37.324L27.3395 34.099L26.6423 33.3821L23.3258 36.6071L24.023 37.324ZM23.9851 37.3607C23.9973 37.3488 24.0094 37.3371 24.0216 37.3253L23.3272 36.6058C23.3146 36.6179 23.3021 36.63 23.2899 36.6418L23.9851 37.3607ZM22.2929 38.1556C22.7096 38.1556 23.0401 38.0608 23.3265 37.8958C23.5957 37.7408 23.8084 37.5315 23.9851 37.3607L23.2899 36.6418C23.0966 36.8287 22.971 36.9466 22.8274 37.0293C22.701 37.1021 22.5441 37.1556 22.2929 37.1556V38.1556ZM22.265 30.5842L21.794 37.6222L22.7918 37.6889L23.2628 30.6509L22.265 30.5842ZM22.5374 31.0633L22.5404 31.0648L22.9874 30.1703L22.9844 30.1688L22.5374 31.0633ZM22.7639 30.1161H22.7609V31.1161H22.7639V30.1161ZM35.2284 18.6934L22.4289 30.2449L23.0989 30.9872L35.8984 19.4357L35.2284 18.6934ZM34.9548 19.2037C35.0969 19.1172 35.2265 19.07 35.3261 19.0494C35.4353 19.0268 35.4748 19.0423 35.4573 19.0363C35.4456 19.0323 35.3972 19.0134 35.3491 18.9562C35.2945 18.8911 35.2668 18.8068 35.2698 18.7267C35.2724 18.6572 35.2966 18.6211 35.2944 18.6247C35.2928 18.6271 35.2772 18.65 35.2315 18.6906L35.8953 19.4385C36.0639 19.2888 36.2579 19.0608 36.2691 18.7644C36.2753 18.5985 36.2212 18.4397 36.1151 18.3133C36.0156 18.1948 35.8906 18.1278 35.782 18.0905C35.5706 18.0179 35.3345 18.0264 35.1232 18.0702C34.9023 18.116 34.6664 18.2086 34.435 18.3494L34.9548 19.2037ZM19.1637 29.1669L34.9617 19.1994L34.4281 18.3537L18.6301 28.3212L19.1637 29.1669ZM11.92 27.0914L18.748 29.2214L19.0458 28.2667L12.2178 26.1367L11.92 27.0914ZM12.2156 23.9571C11.7292 24.1524 11.334 24.3786 11.046 24.6332C10.7613 24.885 10.5428 25.2006 10.5055 25.5716C10.4663 25.9613 10.6376 26.2973 10.9014 26.5467C11.1565 26.788 11.512 26.9662 11.9222 27.0921L12.2156 26.1361C11.8901 26.0362 11.6924 25.9185 11.5885 25.8202C11.4931 25.73 11.4994 25.6827 11.5005 25.6717C11.5035 25.6419 11.5307 25.5396 11.7085 25.3823C11.883 25.228 12.1671 25.0542 12.5883 24.885L12.2156 23.9571Z" fill="#FFFF00"/>
</svg>
