<svg width="53" height="52" viewBox="0 0 53 52" fill="none" xmlns="http://www.w3.org/2000/svg">
<path fill-rule="evenodd" clip-rule="evenodd" d="M50 1H0V51H50V1ZM43.125 15.7214V35.1667L36.6927 31.5208V23.8828C36.6927 23.5339 36.4375 23.362 36.1797 23.5339L28.4583 28.0495C28.2865 28.1354 28.1146 28.3958 28.1146 28.6562V37.6849C28.1146 38.0312 28.3724 38.2057 28.6302 38.0312L35.1458 34.2109L41.4948 37.9453L24.8516 47.6667L8.21094 37.8568L14.5599 34.125L21.0781 37.9453C21.25 38.0312 21.5937 37.8568 21.5937 37.5964V28.5703C21.5937 28.3099 21.5078 28.1354 21.25 27.9609L13.5286 23.4479C13.3568 23.362 13.0156 23.5339 13.0156 23.7943V31.4349L6.66667 35.1667V15.7214L23.3958 6V13.4661L16.875 17.2839C16.6172 17.3724 16.6172 17.8047 16.875 17.8932L24.5964 22.4063C24.7682 22.4922 25.0234 22.5807 25.2812 22.4063L33.0026 17.8932C33.2604 17.8047 33.2604 17.4583 33.0026 17.2839L26.4844 13.4661V6L43.125 15.7214Z" fill="#47F4F4"/>
<path d="M2 1V0.5H1.5V1H2ZM52 1H52.5V0.5H52V1ZM2 51H1.5V51.5H2V51ZM52 51V51.5H52.5V51H52ZM45.125 35.1667L44.8784 35.6017L45.625 36.0248V35.1667H45.125ZM45.125 15.7214H45.625V15.4344L45.3772 15.2896L45.125 15.7214ZM38.6927 31.5208H38.1927V31.8122L38.4462 31.9558L38.6927 31.5208ZM38.1797 23.5339L38.4321 23.9655L38.4448 23.958L38.457 23.9499L38.1797 23.5339ZM30.4583 28.0495L30.6819 28.4967L30.6966 28.4894L30.7107 28.4811L30.4583 28.0495ZM30.6302 38.0312L30.3773 37.5999L30.3634 37.6081L30.35 37.6172L30.6302 38.0312ZM37.1458 34.2109L37.3993 33.78L37.1462 33.6311L36.8929 33.7796L37.1458 34.2109ZM43.4948 37.9453L43.747 38.3771L44.4836 37.9468L43.7483 37.5143L43.4948 37.9453ZM26.8516 47.6667L26.5976 48.0974L26.8504 48.2464L27.1037 48.0984L26.8516 47.6667ZM10.2109 37.8568L9.95757 37.4257L9.22529 37.8561L9.95702 38.2875L10.2109 37.8568ZM16.5599 34.125L16.8127 33.6936L16.5595 33.5452L16.3065 33.6939L16.5599 34.125ZM23.0781 37.9453L22.8253 38.3767L22.8396 38.3851L22.8545 38.3925L23.0781 37.9453ZM23.25 27.9609L23.5302 27.5469L23.5166 27.5376L23.5023 27.5293L23.25 27.9609ZM15.5286 23.4479L15.781 23.0162L15.7669 23.008L15.7523 23.0007L15.5286 23.4479ZM15.0156 31.4349L15.269 31.8659L15.5156 31.721V31.4349H15.0156ZM8.66667 35.1667H8.16667V36.0405L8.92003 35.5977L8.66667 35.1667ZM8.66667 15.7214L8.41545 15.289L8.16667 15.4336V15.7214H8.66667ZM25.3958 6H25.8958V5.13116L25.1446 5.56769L25.3958 6ZM25.3958 13.4661L25.6485 13.8976L25.8958 13.7528V13.4661H25.3958ZM18.875 17.2839L19.0374 17.7567L19.0846 17.7405L19.1276 17.7153L18.875 17.2839ZM18.875 17.8932L19.1273 17.4616L19.0844 17.4365L19.0374 17.4203L18.875 17.8932ZM26.5964 22.4063L26.344 22.8379L26.3581 22.8462L26.3727 22.8535L26.5964 22.4063ZM27.2812 22.4063L27.0289 21.9746L27.0147 21.9829L27.001 21.9922L27.2812 22.4063ZM35.0026 17.8932L34.8402 17.4203L34.7932 17.4365L34.7503 17.4616L35.0026 17.8932ZM35.0026 17.2839L35.2828 16.8698L35.2694 16.8606L35.2553 16.8524L35.0026 17.2839ZM28.4844 13.4661H27.9844V13.7527L28.2317 13.8976L28.4844 13.4661ZM28.4844 6L28.7366 5.56827L27.9844 5.12883V6H28.4844ZM2 1.5H52V0.5H2V1.5ZM2.5 51V1H1.5V51H2.5ZM52 50.5H2V51.5H52V50.5ZM51.5 1V51H52.5V1H51.5ZM45.625 35.1667V15.7214H44.625V35.1667H45.625ZM38.4462 31.9558L44.8784 35.6017L45.3715 34.7317L38.9393 31.0858L38.4462 31.9558ZM38.1927 23.8828V31.5208H39.1927V23.8828H38.1927ZM38.457 23.9499C38.4579 23.9493 38.4351 23.9644 38.3902 23.9663C38.343 23.9684 38.2931 23.9546 38.2523 23.9269C38.172 23.8724 38.1927 23.8205 38.1927 23.8828H39.1927C39.1927 23.5962 39.0859 23.2838 38.8135 23.0992C38.519 22.8995 38.1678 22.9409 37.9023 23.1178L38.457 23.9499ZM30.7107 28.4811L38.4321 23.9655L37.9273 23.1022L30.2059 27.6179L30.7107 28.4811ZM30.6146 28.6562C30.6146 28.6322 30.6242 28.5893 30.6518 28.543C30.6645 28.5216 30.6774 28.5058 30.6869 28.4962C30.6974 28.4856 30.6973 28.489 30.6819 28.4967L30.2347 27.6023C30.04 27.6996 29.8905 27.8666 29.7922 28.0319C29.6909 28.2024 29.6146 28.4199 29.6146 28.6562H30.6146ZM30.6146 37.6849V28.6562H29.6146V37.6849H30.6146ZM30.35 37.6172C30.3496 37.6174 30.3728 37.602 30.418 37.6C30.4654 37.5978 30.5148 37.6116 30.555 37.6387C30.6341 37.6919 30.6146 37.7431 30.6146 37.6849H29.6146C29.6146 37.973 29.724 38.2846 29.9964 38.4681C30.2911 38.6665 30.6433 38.6261 30.9104 38.4453L30.35 37.6172ZM36.8929 33.7796L30.3773 37.5999L30.8831 38.4626L37.3987 34.6423L36.8929 33.7796ZM43.7483 37.5143L37.3993 33.78L36.8923 34.6419L43.2413 38.3763L43.7483 37.5143ZM27.1037 48.0984L43.747 38.3771L43.2426 37.5136L26.5994 47.2349L27.1037 48.0984ZM9.95702 38.2875L26.5976 48.0974L27.1055 47.2359L10.4649 37.426L9.95702 38.2875ZM16.3065 33.6939L9.95757 37.4257L10.4643 38.2878L16.8133 34.5561L16.3065 33.6939ZM23.3309 37.5139L16.8127 33.6936L16.3071 34.5564L22.8253 38.3767L23.3309 37.5139ZM23.0937 37.5964C23.0937 37.5473 23.1107 37.5111 23.1231 37.4928C23.129 37.4841 23.1339 37.4791 23.1364 37.4768C23.1388 37.4746 23.1402 37.4738 23.1403 37.4737C23.1404 37.4736 23.141 37.4733 23.1426 37.4727C23.1441 37.4721 23.1491 37.4704 23.158 37.469C23.1698 37.4673 23.2269 37.4607 23.3017 37.4981L22.8545 38.3925C23.1591 38.5448 23.4808 38.4372 23.6605 38.3277C23.859 38.2068 24.0937 37.9595 24.0937 37.5964H23.0937ZM23.0937 28.5703V37.5964H24.0937V28.5703H23.0937ZM22.9698 28.375C23.0571 28.4341 23.0765 28.4672 23.0801 28.4737C23.0821 28.4773 23.0937 28.4968 23.0937 28.5703H24.0937C24.0937 28.3835 24.0625 28.1855 23.957 27.9931C23.8532 27.8036 23.7007 27.6622 23.5302 27.5469L22.9698 28.375ZM15.2763 23.8796L22.9977 28.3926L23.5023 27.5293L15.781 23.0162L15.2763 23.8796ZM15.5156 23.7943C15.5156 23.8425 15.499 23.8787 15.4861 23.8978C15.4801 23.9068 15.4749 23.9121 15.4721 23.9147C15.4693 23.9173 15.4676 23.9184 15.467 23.9187C15.4665 23.919 15.4656 23.9195 15.4636 23.9203C15.4617 23.921 15.4565 23.9227 15.4473 23.924C15.435 23.9258 15.3786 23.9319 15.305 23.8951L15.7523 23.0007C15.4495 22.8493 15.1293 22.9539 14.9483 23.0637C14.7487 23.1849 14.5156 23.432 14.5156 23.7943H15.5156ZM15.5156 31.4349V23.7943H14.5156V31.4349H15.5156ZM8.92003 35.5977L15.269 31.8659L14.7623 31.0038L8.4133 34.7356L8.92003 35.5977ZM8.16667 15.7214V35.1667H9.16667V15.7214H8.16667ZM25.1446 5.56769L8.41545 15.289L8.91788 16.1537L25.647 6.43231L25.1446 5.56769ZM25.8958 13.4661V6H24.8958V13.4661H25.8958ZM19.1276 17.7153L25.6485 13.8976L25.1432 13.0347L18.6224 16.8524L19.1276 17.7153ZM19.0374 17.4203C19.0979 17.4411 19.139 17.4825 19.1601 17.5181C19.1787 17.5496 19.1816 17.5745 19.1816 17.5885C19.1816 17.6026 19.1787 17.6275 19.1601 17.6589C19.139 17.6945 19.0979 17.736 19.0374 17.7567L18.7126 16.811C18.32 16.9458 18.1816 17.3184 18.1816 17.5885C18.1816 17.8587 18.32 18.2313 18.7126 18.3661L19.0374 17.4203ZM26.8487 21.9746L19.1273 17.4616L18.6227 18.3249L26.344 22.8379L26.8487 21.9746ZM27.001 21.9922C26.9858 22.0025 26.9772 22.0047 26.9744 22.0054C26.9709 22.0062 26.9647 22.0072 26.9535 22.0061C26.9257 22.0035 26.8834 21.9907 26.82 21.959L26.3727 22.8535C26.5815 22.9578 27.0663 23.1555 27.5615 22.8203L27.001 21.9922ZM34.7503 17.4616L27.0289 21.9746L27.5336 22.8379L35.2549 18.3249L34.7503 17.4616ZM34.7224 17.6979C34.7242 17.6992 34.696 17.6794 34.696 17.6208C34.696 17.5907 34.7043 17.5481 34.7335 17.5051C34.7643 17.4595 34.8059 17.4321 34.8402 17.4203L35.165 18.3661C35.5151 18.2459 35.696 17.9327 35.696 17.6208C35.696 17.3232 35.5388 17.043 35.2828 16.8698L34.7224 17.6979ZM28.2317 13.8976L34.7499 17.7153L35.2553 16.8524L28.7371 13.0347L28.2317 13.8976ZM27.9844 6V13.4661H28.9844V6H27.9844ZM45.3772 15.2896L28.7366 5.56827L28.2322 6.43173L44.8728 16.1531L45.3772 15.2896ZM9.16667 35.1667V35.0807H8.16667V35.1667H9.16667Z" fill="#FFFF00"/>
</svg>
