<svg width="53" height="52" viewBox="0 0 53 52" fill="none" xmlns="http://www.w3.org/2000/svg">
<path fill-rule="evenodd" clip-rule="evenodd" d="M0 1H50V51H0V1ZM12.2721 38.7279C9.01471 35.4706 7 30.9706 7 26C7 16.0589 15.0589 8 25 8C25.1477 8 25.2954 8.00182 25.4429 8.00545C35.027 8.2369 42.7546 15.9595 42.9942 25.5415C42.998 25.6942 43 25.8471 43 26C43 35.9411 34.9411 44 25 44C24.8523 44 24.7046 43.9982 24.5571 43.9946C19.7625 43.8788 15.4324 41.8882 12.2721 38.7279Z" fill="#47F4F4"/>
<path d="M2 1V0.5H1.5V1H2ZM52 1H52.5V0.5H52V1ZM2 51H1.5V51.5H2V51ZM52 51V51.5H52.5V51H52ZM34.848 29.6L34.3516 29.5398L34.2837 30.1H34.848V29.6ZM40.932 29.6V30.1H41.3224L41.4171 29.7213L40.932 29.6ZM40.932 22.4L41.4171 22.2787L41.3224 21.9H40.932V22.4ZM34.848 22.4V21.9H34.2837L34.3516 22.4602L34.848 22.4ZM31.662 39.608L31.2221 39.3702L30.6125 40.4981L31.8248 40.0808L31.662 39.608ZM34.146 33.2V32.7H33.7579L33.6616 33.076L34.146 33.2ZM39.456 33.2L39.8884 33.4511L40.3246 32.7H39.456V33.2ZM31.212 29.6V30.1H31.6484L31.7074 29.6676L31.212 29.6ZM22.788 29.6L22.2936 29.6749L22.3581 30.1H22.788V29.6ZM31.212 22.4L31.7073 22.3314L31.6475 21.9H31.212V22.4ZM22.788 22.4V21.9H22.359L22.2938 22.324L22.788 22.4ZM27 40.328L26.5888 40.6124L27 41.207L27.4112 40.6124L27 40.328ZM23.562 33.2V32.7H22.8985L23.0814 33.3378L23.562 33.2ZM30.438 33.2L30.9186 33.3378L31.1015 32.7H30.438V33.2ZM19.8 18.8V19.3H20.1792L20.2815 18.9348L19.8 18.8ZM14.544 18.8L14.1102 18.5513L13.6811 19.3H14.544V18.8ZM22.32 12.392L22.7599 12.6298L23.3665 11.5075L22.1588 11.9187L22.32 12.392ZM14.544 33.2V32.7H13.6771L14.1112 33.4504L14.544 33.2ZM19.8 33.2L20.2815 33.0652L20.1792 32.7H19.8V33.2ZM22.32 39.608L22.1569 40.0807L23.3701 40.4992L22.7599 39.3702L22.32 39.608ZM13.068 29.6L12.5829 29.7213L12.6776 30.1H13.068V29.6ZM19.152 29.6V30.1H19.7163L19.6484 29.5398L19.152 29.6ZM19.152 22.4L19.6484 22.4602L19.7163 21.9H19.152V22.4ZM13.068 22.4V21.9H12.6776L12.5829 22.2787L13.068 22.4ZM27 11.654L27.4112 11.3696L27 10.775L26.5888 11.3696L27 11.654ZM30.438 18.8V19.3H31.1015L30.9186 18.6622L30.438 18.8ZM23.562 18.8L23.0814 18.6622L22.8985 19.3H23.562V18.8ZM39.456 18.8V19.3H40.3227L39.8888 18.5497L39.456 18.8ZM34.146 18.8L33.6612 18.9225L33.7566 19.3H34.146V18.8ZM31.662 12.392L31.824 11.919L30.6201 11.5068L31.2213 12.6282L31.662 12.392ZM33.8883 9.37017L33.697 9.83211L33.8883 9.37017ZM43.6298 19.1117L44.0918 18.9204L43.6298 19.1117ZM39.7279 38.7279L39.3744 38.3744L39.7279 38.7279ZM20.1117 42.6298L19.9204 43.0918L20.1117 42.6298ZM14.2721 38.7279L14.6256 38.3744H14.6256L14.2721 38.7279ZM2 1.5H52V0.5H2V1.5ZM2.5 51V1H1.5V51H2.5ZM52 50.5H2V51.5H52V50.5ZM51.5 1V51H52.5V1H51.5ZM35.3444 29.6602C35.4895 28.4632 35.6 27.2527 35.6 26H34.6C34.6 27.1952 34.4945 28.3608 34.3516 29.5398L35.3444 29.6602ZM40.932 29.1H34.848V30.1H40.932V29.1ZM40.9 26C40.9 27.1937 40.727 28.3585 40.4469 29.4787L41.4171 29.7213C41.713 28.5375 41.9 27.2903 41.9 26H40.9ZM40.4469 22.5213C40.727 23.6415 40.9 24.8063 40.9 26H41.9C41.9 24.7097 41.713 23.4625 41.4171 22.2787L40.4469 22.5213ZM34.848 22.9H40.932V21.9H34.848V22.9ZM35.6 26C35.6 24.7472 35.4895 23.5368 35.3444 22.3398L34.3516 22.4602C34.4945 23.6392 34.6 24.8047 34.6 26H35.6ZM32.1019 39.8458C33.2026 37.8093 34.045 35.6108 34.6304 33.324L33.6616 33.076C33.095 35.2892 32.2814 37.4106 31.2221 39.3702L32.1019 39.8458ZM39.0236 32.9489C37.3401 35.8479 34.6691 38.0439 31.4992 39.1352L31.8248 40.0808C35.2217 38.9113 38.0842 36.5579 39.8884 33.4511L39.0236 32.9489ZM34.146 33.7H39.456V32.7H34.146V33.7ZM31.212 29.1H22.788V30.1H31.212V29.1ZM31 26C31 27.1907 30.8774 28.3529 30.7166 29.5324L31.7074 29.6676C31.8706 28.4711 32 27.2573 32 26H31ZM30.7167 22.4686C30.8773 23.6286 31 24.809 31 26H32C32 24.743 31.8707 23.5114 31.7073 22.3314L30.7167 22.4686ZM22.788 22.9H31.212V21.9H22.788V22.9ZM23 26C23 24.8052 23.1054 23.6249 23.2822 22.476L22.2938 22.324C22.1106 23.5151 22 24.7468 22 26H23ZM23.2824 29.5251C23.1053 28.3568 23 27.1943 23 26H22C22 27.2537 22.1107 28.4672 22.2936 29.6749L23.2824 29.5251ZM27.4112 40.0436C25.9436 37.9217 24.7635 35.5766 24.0426 33.0622L23.0814 33.3378C23.8365 35.9714 25.0684 38.4143 26.5888 40.6124L27.4112 40.0436ZM29.9574 33.0622C29.2365 35.5766 28.0564 37.9217 26.5888 40.0436L27.4112 40.6124C28.9316 38.4143 30.1635 35.9714 30.9186 33.3378L29.9574 33.0622ZM23.562 33.7H30.438V32.7H23.562V33.7ZM19.8 18.3H14.544V19.3H19.8V18.3ZM21.8801 12.1542C20.7784 14.1924 19.9559 16.3887 19.3185 18.6652L20.2815 18.9348C20.9041 16.7113 21.7016 14.5876 22.7599 12.6298L21.8801 12.1542ZM14.9778 19.0487C16.6432 16.1432 19.311 13.9448 22.4812 12.8653L22.1588 11.9187C18.7583 13.0766 15.8967 15.4348 14.1102 18.5513L14.9778 19.0487ZM14.544 33.7H19.8V32.7H14.544V33.7ZM22.4831 39.1353C19.3183 38.0436 16.6533 35.8474 14.9768 32.9496L14.1112 33.4504C15.9082 36.5564 18.7647 38.9104 22.1569 40.0807L22.4831 39.1353ZM19.3185 33.3348C19.9559 35.6113 20.7784 37.8076 21.8801 39.8458L22.7599 39.3702C21.7016 37.4124 20.9041 35.2887 20.2815 33.0652L19.3185 33.3348ZM13.5531 29.4787C13.273 28.3585 13.1 27.1937 13.1 26H12.1C12.1 27.2903 12.287 28.5375 12.5829 29.7213L13.5531 29.4787ZM19.152 29.1H13.068V30.1H19.152V29.1ZM18.4 26C18.4 27.2527 18.5105 28.4632 18.6556 29.6602L19.6484 29.5398C19.5055 28.3608 19.4 27.1952 19.4 26H18.4ZM18.6556 22.3398C18.5105 23.5368 18.4 24.7472 18.4 26H19.4C19.4 24.8047 19.5055 23.6392 19.6484 22.4602L18.6556 22.3398ZM13.068 22.9H19.152V21.9H13.068V22.9ZM13.1 26C13.1 24.8063 13.273 23.6415 13.5531 22.5213L12.5829 22.2787C12.287 23.4625 12.1 24.7097 12.1 26H13.1ZM26.5888 11.9384C28.0558 14.0595 29.2362 16.4225 29.9574 18.9378L30.9186 18.6622C30.1638 16.0295 28.9322 13.5685 27.4112 11.3696L26.5888 11.9384ZM24.0426 18.9378C24.7638 16.4225 25.9442 14.0595 27.4112 11.9384L26.5888 11.3696C25.0678 13.5685 23.8362 16.0295 23.0814 18.6622L24.0426 18.9378ZM30.438 18.3H23.562V19.3H30.438V18.3ZM39.456 18.3H34.146V19.3H39.456V18.3ZM31.5 12.865C34.697 13.9597 37.3552 16.1661 39.0232 19.0503L39.8888 18.5497C38.1008 15.4579 35.251 13.0923 31.824 11.919L31.5 12.865ZM34.6308 18.6775C34.0574 16.4086 33.2084 14.2183 32.1027 12.1558L31.2213 12.6282C32.2885 14.6189 33.1079 16.7327 33.6612 18.9225L34.6308 18.6775ZM27 7.5C16.7689 7.5 8.5 15.8248 8.5 26H9.5C9.5 16.3752 17.3231 8.5 27 8.5V7.5ZM34.0796 8.90823C31.8351 7.97852 29.4295 7.5 27 7.5V8.5C29.2981 8.5 31.5738 8.95265 33.697 9.83211L34.0796 8.90823ZM40.0815 12.9185C38.3636 11.2006 36.3242 9.83794 34.0796 8.90823L33.697 9.83211C35.8202 10.7116 37.7493 12.0006 39.3744 13.6256L40.0815 12.9185ZM44.0918 18.9204C43.1621 16.6758 41.7994 14.6364 40.0815 12.9185L39.3744 13.6256C40.9994 15.2507 42.2884 17.1798 43.1679 19.303L44.0918 18.9204ZM45.5 26C45.5 23.5705 45.0215 21.1649 44.0918 18.9204L43.1679 19.303C44.0473 21.4262 44.5 23.7019 44.5 26H45.5ZM40.0815 39.0815C43.5509 35.6121 45.5 30.9065 45.5 26H44.5C44.5 30.6413 42.6563 35.0925 39.3744 38.3744L40.0815 39.0815ZM27 44.5C31.9065 44.5 36.6121 42.5509 40.0815 39.0815L39.3744 38.3744C36.0925 41.6563 31.6413 43.5 27 43.5V44.5ZM19.9204 43.0918C22.1649 44.0215 24.5705 44.5 27 44.5V43.5C24.7019 43.5 22.4262 43.0473 20.303 42.1679L19.9204 43.0918ZM13.9185 39.0815C15.6364 40.7994 17.6758 42.1621 19.9204 43.0918L20.303 42.1679C18.1798 41.2884 16.2507 39.9994 14.6256 38.3744L13.9185 39.0815ZM8.5 26C8.5 30.9065 10.4491 35.6121 13.9185 39.0815L14.6256 38.3744C11.3437 35.0925 9.5 30.6413 9.5 26H8.5Z" fill="#FFFF00"/>
</svg>
