<svg xmlns="http://www.w3.org/2000/svg" version="1.1" xmlns:xlink="http://www.w3.org/1999/xlink" xmlns:svgjs="http://svgjs.com/svgjs" width="1440" height="1024" preserveAspectRatio="none" viewBox="0 0 1440 1024">
    <g mask="url(&quot;#SvgjsMask1190&quot;)" fill="none">
        <rect width="1440" height="1024" x="0" y="0" fill="rgba(0, 71, 71, 1)"></rect>

        <path d="M524.95 483.78 a0.94 0.94 0 1 0 1.88 0 a0.94 0.94 0 1 0 -1.88 0z" fill="rgba(0, 128, 128, 1)" class="shape-float1"></path>
        <path d="M-42.57 125.92 a84.18 84.18 0 1 0 168.36 0 a84.18 84.18 0 1 0 -168.36 0z" stroke="rgba(0, 128, 128, 1)" class="shape-float2"></path>
        <path d="M687.08 186.04 a61.3 61.3 0 1 0 122.6 0 a61.3 61.3 0 1 0 -122.6 0z" stroke="rgba(0, 128, 128, 1)" class="shape-float3"></path>

        <path d="M349.26 181.53 a97.35 97.35 0 1 0 194.7 0 a97.35 97.35 0 1 0 -194.7 0z" stroke="rgba(0, 128, 128, 1)" class="shape-float1"></path>
        <path d="M1095.76 933.83L1113.91 933.83L1113.91 1025.52L1095.76 1025.52z" fill="rgba(0, 128, 128, 1)" class="shape-float2"></path>
        <path d="M847.31 353.62L890.97 353.62L890.97 397.28L847.31 397.28z" stroke="rgba(0, 128, 128, 1)" class="shape-float3"></path>

        <path d="M864.77 203.34L911.38 203.34L911.38 249.95L864.77 249.95z" fill="rgba(0, 128, 128, 1)" class="shape-float1"></path>
        <path d="M9.51 506.44L96.55 506.44L96.55 593.48L9.51 593.48z" fill="rgba(0, 128, 128, 1)" class="shape-float2"></path>
        <path d="M1375.36 266.22a23.3 23.3 0 1 0-38.63-26.08z" fill="rgba(0, 128, 128, 1)" class="shape-float3"></path>
        
        <path d="M1042.48 130.11 a94.34 94.34 0 1 0 188.68 0 a94.34 94.34 0 1 0 -188.68 0z" fill="rgba(0, 128, 128, 1)" class="shape-float1"></path>
        <path d="M247.3 100.18L256.89 100.18L256.89 109.77L247.3 109.77z" stroke="rgba(0, 128, 128, 1)" class="shape-float2"></path>
        <path d="M755.48 710.45 a81.53 81.53 0 1 0 163.06 0 a81.53 81.53 0 1 0 -163.06 0z" stroke="rgba(0, 128, 128, 1)" class="shape-float3"></path>

        <path d="M1206.93 368.08L1306.18 368.08L1306.18 463.55L1206.93 463.55z" stroke="rgba(0, 128, 128, 1)" class="shape-float1"></path>
        <path d="M360.27 957.75 a72.32 72.32 0 1 0 144.64 0 a72.32 72.32 0 1 0 -144.64 0z" fill="rgba(0, 128, 128, 1)" class="shape-float2"></path>
        <path d="M77.42 952.97 a2.01 2.01 0 1 0 4.02 0 a2.01 2.01 0 1 0 -4.02 0z" fill="rgba(0, 128, 128, 1)" class="shape-float3"></path>

        <path d="M509.19 824.6L600.16 824.6L600.16 915.57L509.19 915.57z" fill="rgba(0, 128, 128, 1)" class="shape-float1"></path>
        <path d="M696.22 594.78 a82.77 82.77 0 1 0 165.54 0 a82.77 82.77 0 1 0 -165.54 0z" fill="rgba(0, 128, 128, 1)" class="shape-float2"></path>
        <path d="M706.33 896.41L766.57 896.41L766.57 956.65L706.33 956.65z" fill="rgba(0, 128, 128, 1)" class="shape-float3"></path>
    </g>
    <defs>
        <mask id="SvgjsMask1190">
            <rect width="1440" height="1024" fill="#ffffff"></rect>
        </mask>
        <style>
            <!-- @keyframes float1 {
                0%{transform: translate(0, 0)}
                50%{transform: translate(-10px, 0)}
                100%{transform: translate(0, 0)}
            }

            .shape-float1 {
                animation: float1 5s infinite;
            }

            @keyframes float2 {
                0%{transform: translate(0, 0)}
                50%{transform: translate(-5px, -5px)}
                100%{transform: translate(0, 0)}
            }

            .shape-float2 {
                animation: float2 4s infinite;
            }

            @keyframes float3 {
                0%{transform: translate(0, 0)}
                50%{transform: translate(0, -10px)}
                100%{transform: translate(0, 0)}
            }

            .shape-float3 {
                animation: float3 6s infinite;
            } -->
        </style>
    </defs>
</svg>