<svg xmlns="http://www.w3.org/2000/svg" version="1.1" xmlns:xlink="http://www.w3.org/1999/xlink" xmlns:svgjs="http://svgjs.com/svgjs" width="1440" height="560" preserveAspectRatio="none" viewBox="0 0 1440 560">
    <g mask="url(&quot;#SvgjsMask1083&quot;)" fill="none">
        <rect width="1440" height="560" x="0" y="0" fill="rgba(0, 71, 71, 1)"></rect>
        <path d="M779.77 370.1L831.68 370.1L831.68 422.01L779.77 422.01z" fill="rgba(0, 128, 128, 1)" class="shape-float1"></path>
        <path d="M1097.62 89.78L1129.36 89.78L1129.36 134.3L1097.62 134.3z" fill="rgba(0, 128, 128, 1)" class="shape-float2"></path>
        <path d="M380.22 295.6L433.85 295.6L433.85 349.23L380.22 349.23z" stroke="rgba(0, 128, 128, 1)" class="shape-float3"></path>

        <path d="M1244.1 498.5L1292.58 498.5L1292.58 509.28L1244.1 509.28z" fill="rgba(0, 128, 128, 1)" class="shape-float1"></path>
        <path d="M533.46 88.76L544.23 88.76L544.23 99.53L533.46 99.53z" stroke="rgba(0, 128, 128, 1)" class="shape-float2"></path>
        <path d="M1266.03 468.96 a37.72 37.72 0 1 0 75.44 0 a37.72 37.72 0 1 0 -75.44 0z" fill="rgba(0, 128, 128, 1)" class="shape-float3"></path>

        <path d="M655.83 494.12a1.12 1.12 0 1 0-1.98 1.05z" stroke="rgba(0, 128, 128, 1)" class="shape-float1"></path>
        <path d="M1438.26 421.05L1463.76 421.05L1463.76 446.55L1438.26 446.55z" fill="rgba(0, 128, 128, 1)" class="shape-float2"></path>
        <path d="M942.03 308.4L955.08 308.4L955.08 321.45L942.03 321.45z" fill="rgba(0, 128, 128, 1)" class="shape-float3"></path>

        <path d="M432.76 390.52L453.68 390.52L453.68 445.25L432.76 445.25z" stroke="rgba(0, 128, 128, 1)" class="shape-float1"></path>
        <path d="M1231.34 166.76a13.32 13.32 0 1 0-21.46-15.79z" fill="rgba(0, 128, 128, 1)" class="shape-float2"></path>
        <path d="M1155.5 197.86L1175.2 197.86L1175.2 217.56L1155.5 217.56z" fill="rgba(0, 128, 128, 1)" class="shape-float3"></path>

        <path d="M1060.48 128.84L1068.08 128.84L1068.08 171.85L1060.48 171.85z" stroke="rgba(0, 128, 128, 1)" class="shape-float1"></path>
        <path d="M215.25 85.67L222.27 85.67L222.27 92.69L215.25 92.69z" stroke="rgba(0, 128, 128, 1)" class="shape-float2"></path>
        <path d="M1428.95 32.53L1457.55 32.53L1457.55 61.13L1428.95 61.13z" stroke="rgba(0, 128, 128, 1)" class="shape-float3"></path>

        <path d="M1241.5 313.52L1255.58 313.52L1255.58 327.6L1241.5 327.6z" fill="rgba(0, 128, 128, 1)" class="shape-float1"></path>
        <path d="M239.08 412.04 a33.21 33.21 0 1 0 66.42 0 a33.21 33.21 0 1 0 -66.42 0z" stroke="rgba(0, 128, 128, 1)" class="shape-float2"></path>
        <path d="M1377.5 247.84a5.66 5.66 0 1 0-1.05-11.27z" fill="rgba(0, 128, 128, 1)" class="shape-float3"></path>

        <path d="M480.57 362.44L485.33 362.44L485.33 366.4L480.57 366.4z" fill="rgba(0, 128, 128, 1)" class="shape-float1"></path>
        <path d="M1021.95 475.91 a49.65 49.65 0 1 0 99.3 0 a49.65 49.65 0 1 0 -99.3 0z" stroke="rgba(0, 128, 128, 1)" class="shape-float2"></path>
        <path d="M185.27 541.67L215.33 541.67L215.33 571.15L185.27 571.15z" fill="rgba(0, 128, 128, 1)" class="shape-float3"></path>

        <path d="M1073.09 95.26a53.23 53.23 0 1 0 75.14-75.41z" fill="rgba(0, 128, 128, 1)" class="shape-float1"></path>
        <path d="M225.58 183.51L239.07 183.51L239.07 197L225.58 197z" fill="rgba(0, 128, 128, 1)" class="shape-float2"></path>
        <path d="M904.92 70.86a29.32 29.32 0 1 0-44.74 37.9z" fill="rgba(0, 128, 128, 1)" class="shape-float3"></path>

        <path d="M77.9 23.92L112.9 23.92L112.9 58.92L77.9 58.92z" stroke="rgba(0, 128, 128, 1)" class="shape-float1"></path>
        <path d="M862.28 394L912.42 394L912.42 422.99L862.28 422.99z" fill="rgba(0, 128, 128, 1)" class="shape-float2"></path>
        <path d="M282.18 410.81a46.21 46.21 0 1 0 65.14-65.56z" stroke="rgba(0, 128, 128, 1)" class="shape-float3"></path>

        <path d="M330.33 555.25L378.99 555.25L378.99 588.27L330.33 588.27z" stroke="rgba(0, 128, 128, 1)" class="shape-float1"></path>
        <path d="M661.63 105.28L691.45 105.28L691.45 144.29L661.63 144.29z" fill="rgba(0, 128, 128, 1)" class="shape-float2"></path>
        <path d="M339.34 67.74a41.42 41.42 0 1 0 7.02 82.54z" stroke="rgba(0, 128, 128, 1)" class="shape-float3"></path>

        <path d="M104.36 304.95L157.43 304.95L157.43 358.3L104.36 358.3z" fill="rgba(0, 128, 128, 1)" class="shape-float1"></path>
        <path d="M215.82 44.42 a9.32 9.32 0 1 0 18.64 0 a9.32 9.32 0 1 0 -18.64 0z" stroke="rgba(0, 128, 128, 1)" class="shape-float2"></path>
        <path d="M151.83 493.14L159.48 493.14L159.48 542.18L151.83 542.18z" stroke="rgba(0, 128, 128, 1)" class="shape-float3"></path>
    </g>
    <defs>
        <mask id="SvgjsMask1083">
            <rect width="1440" height="560" fill="#ffffff"></rect>
        </mask>
        <style>
            @keyframes float1 {
                0%{transform: translate(0, 0)}
                50%{transform: translate(-10px, 0)}
                100%{transform: translate(0, 0)}
            }

            .shape-float1 {
                animation: float1 5s infinite;
            }

            @keyframes float2 {
                0%{transform: translate(0, 0)}
                50%{transform: translate(-5px, -5px)}
                100%{transform: translate(0, 0)}
            }

            .shape-float2 {
                animation: float2 4s infinite;
            }

            @keyframes float3 {
                0%{transform: translate(0, 0)}
                50%{transform: translate(0, -10px)}
                100%{transform: translate(0, 0)}
            }

            .shape-float3 {
                animation: float3 6s infinite;
            }
        </style>
    </defs>
</svg>