<svg width="53" height="52" viewBox="0 0 53 52" fill="none" xmlns="http://www.w3.org/2000/svg">
<path d="M0 1V51H25.3508H50V1H0ZM38.6883 15.7175H17.5683L18.0733 21.37H38.1858L36.6708 38.315L25.3758 41.445L25.3508 41.455L14.0458 38.315L13.2708 29.65H18.8108L19.2033 34.05L25.3533 35.71L31.5133 34.0475L32.1533 26.89H13.0258L11.5358 10.2H39.1833L38.6883 15.7175Z" fill="#47F4F4"/>
<path d="M2 1V51H27.3508H52V1H2ZM40.6883 15.7175H19.5683L20.0733 21.37H40.1858L38.6708 38.315L27.3758 41.445L27.3508 41.455L16.0458 38.315L15.2708 29.65H20.8108L21.2033 34.05L27.3533 35.71L33.5133 34.0475L34.1533 26.89H15.0258L13.5358 10.2H41.1833L40.6883 15.7175Z" stroke="#FFFF00"/>
</svg>
