<svg xmlns="http://www.w3.org/2000/svg" version="1.1" xmlns:xlink="http://www.w3.org/1999/xlink" xmlns:svgjs="http://svgjs.com/svgjs" width="1440" height="560" preserveAspectRatio="none" viewBox="0 0 1440 560">
<g mask="url(&quot;#SvgjsMask1115&quot;)" fill="none">
    <rect width="1440" height="560" x="0" y="0" fill="rgba(0, 53, 53, 1)"></rect>

    <path d="M1278.3484869998988 239.59936385468308L1215.734146576823 105.32247749425542 1081.4572602163953 167.93681791733133 1144.0716006394712 302.21370427775895z" fill="rgba(0, 71, 71, 1)" class="triangle-float3"></path>

    <path d="M72.51787556060256-46.015014574310925L-41.68515392287266 19.920135240244278 24.249995891682545 134.1231647237195 138.45302537515778 68.1880149091643z" fill="rgba(0, 71, 71, 1)" class="triangle-float1"></path>

    <path d="M1401.328,560.374C1437.841,558.408,1470.096,539.15,1489.268,508.013C1509.531,475.103,1520.342,433.126,1499.855,400.355C1480.176,368.876,1438.452,367.46,1401.328,367.34C1363.9,367.219,1323.193,369.079,1301.695,399.717C1277.293,434.494,1272.904,482.353,1295.295,518.458C1316.763,553.075,1360.653,562.564,1401.328,560.374" fill="rgba(0, 71, 71, 1)" class="triangle-float1"></path>

    <path d="M894.996,582.059C933.055,583.023,977.867,583.352,996.708,550.27C1015.455,517.353,993.386,478.333,971.795,447.207C953.816,421.287,926.418,406.421,894.996,403.641C856.505,400.235,811.625,398.869,790.396,431.156C767.874,465.411,778.478,511.642,801.833,545.335C822.215,574.739,859.23,581.153,894.996,582.059" fill="rgba(0, 71, 71, 1)" class="triangle-float2"></path>
    
    <path d="M203.208,588.135C247.413,586.997,290.216,567.758,312.131,529.351C333.87,491.252,329.308,444.304,306.741,406.689C284.848,370.198,245.737,349.252,203.208,347.798C157.725,346.243,111.044,360.751,86.637,399.163C60.564,440.197,58.593,493.843,84.117,535.221C108.56,574.846,156.665,589.333,203.208,588.135" fill="rgba(0, 71, 71, 1)" class="triangle-float1"></path>

    <path d="M1195.1641589327126 248.61960857752592L1300.83998179503 361.9430544211864 1414.1634276386908 256.2672315588688 1308.487604776373 142.94378571520826z" fill="rgba(0, 71, 71, 1)" class="triangle-float2"></path>

    <path d="M607.937,441.638C637.746,441.391,661.536,420.517,677.251,395.186C694.092,368.04,707.96,334.302,691.518,306.912C675.356,279.988,639.337,279.376,607.937,279.715C577.37,280.045,543.376,282.606,527.427,308.685C510.997,335.55,520.294,369.414,536.606,396.351C552.242,422.172,577.752,441.888,607.937,441.638" fill="rgba(0, 71, 71, 1)" class="triangle-float1"></path>

    <path d="M1068.8281894335203 540.1257687593355L949.9251469760356 456.86896211453575 866.6683403312359 575.7720045720203 985.5713827887205 659.0288112168201z" fill="rgba(0, 71, 71, 1)" class="triangle-float2"></path>

    <path d="M365.931,374.672C400.357,374.748,423.669,344.668,442.009,315.534C462.177,283.495,485.903,246.045,467.85,212.768C449.351,178.668,404.708,174.12,365.931,175.3C329.705,176.402,291.43,186.765,274.218,218.66C257.609,249.437,272.709,285.051,290.433,315.2C307.834,344.8,331.595,374.596,365.931,374.672" fill="rgba(0, 71, 71, 1)" class="triangle-float2"></path>

    <path d="M1064.676,279.028C1126.304,279.066,1177.319,235.426,1206.842,181.33C1235.046,129.651,1237.74,67.312,1207.93,16.543C1178.481,-33.611,1122.727,-64.372,1064.676,-60.79C1011.706,-57.521,975.93,-13.267,949.086,32.515C921.809,79.035,899.921,132.328,922.815,181.154C948.956,236.904,1003.102,278.99,1064.676,279.028" fill="rgba(0, 71, 71, 1)" class="triangle-float1"></path>
    
    <path d="M546.919,264.756C599.721,266.168,652.905,244.587,679.238,198.798C705.505,153.124,696.879,96.647,669.481,51.642C643.242,8.541,597.321,-16.133,546.919,-18.551C491.346,-21.217,429.791,-9.464,402.141,38.816C374.6,86.905,396.414,145.375,426.313,192.035C453.459,234.399,496.622,263.411,546.919,264.756" fill="rgba(0, 71, 71, 1)" class="triangle-float2"></path>
</g>
<defs>
    <mask id="SvgjsMask1115">
        <rect width="1440" height="560" fill="#ffffff"></rect>
    </mask>
    <style>
        @keyframes float1 {
            0%{transform: translate(0, 0)}
            50%{transform: translate(-10px, 0)}
            100%{transform: translate(0, 0)}
        }

        .triangle-float1 {
            animation: float1 5s infinite;
        }

        @keyframes float2 {
            0%{transform: translate(0, 0)}
            50%{transform: translate(-5px, -5px)}
            100%{transform: translate(0, 0)}
        }

        .triangle-float2 {
            animation: float2 4s infinite;
        }

        @keyframes float3 {
            0%{transform: translate(0, 0)}
            50%{transform: translate(0, -10px)}
            100%{transform: translate(0, 0)}
        }

        .triangle-float3 {
            animation: float3 6s infinite;
        }
    </style>
</defs>
</svg>